<svg height="954" node-id="1" sillyvg="true" template-height="954" template-width="1380" version="1.1" viewBox="0 0 1380 954" width="1380" xmlns="http://www.w3.org/2000/svg" xmlns:xlink="http://www.w3.org/1999/xlink"><defs node-id="82"><linearGradient gradientUnits="objectBoundingBox" id="linear-gradient" node-id="5" spreadMethod="pad" x1="660.06" x2="991.7" y1="997.03" y2="837.84"><stop offset="0" stop-color="#9dcef3"/><stop offset="1" stop-color="#ddeffd"/></linearGradient><linearGradient gradientUnits="objectBoundingBox" id="linear-gradient-2" node-id="8" spreadMethod="pad" x1="342.75" x2="730.75" y1="811.35" y2="827.35"><stop offset="0" stop-color="#9dcef3"/><stop offset="1" stop-color="#ddeffd"/></linearGradient><linearGradient gradientUnits="objectBoundingBox" id="linear-gradient-3" node-id="9" spreadMethod="pad" x1="1112.84" x2="1043.48" y1="951.84" y2="771.13"><stop offset="0" stop-color="#90bfa5"/><stop offset="1" stop-color="#c4dfcc"/></linearGradient><linearGradient gradientUnits="objectBoundingBox" id="linear-gradient-4" node-id="12" spreadMethod="pad" x1="971" x2="1097.18" y1="905.42" y2="905.42"><stop offset="0" stop-color="#90bfa5"/><stop offset="1" stop-color="#c4dfcc"/></linearGradient><linearGradient gradientUnits="objectBoundingBox" id="linear-gradient-5" node-id="13" spreadMethod="pad" x1="1121.66" x2="1257.58" y1="891.81" y2="891.81"><stop offset="0" stop-color="#90bfa5"/><stop offset="1" stop-color="#c4dfcc"/></linearGradient><linearGradient gradientUnits="objectBoundingBox" id="linear-gradient-6" node-id="14" spreadMethod="pad" x1="297.58" x2="229.58" y1="953.35" y2="728.35"><stop offset="0" stop-color="#90bfa5"/><stop offset="1" stop-color="#c4dfcc"/></linearGradient><linearGradient gradientUnits="objectBoundingBox" id="linear-gradient-7" node-id="15" spreadMethod="pad" x1="105.18" x2="255.96" y1="896.63" y2="896.63"><stop offset="0" stop-color="#90bfa5"/><stop offset="1" stop-color="#c4dfcc"/></linearGradient><linearGradient gradientUnits="objectBoundingBox" id="linear-gradient-8" node-id="16" spreadMethod="pad" x1="372.96" x2="352.96" y1="937.69" y2="816.69"><stop offset="0" stop-color="#90bfa5"/><stop offset="1" stop-color="#c4dfcc"/></linearGradient><linearGradient gradientUnits="objectBoundingBox" id="linear-gradient-9" node-id="17" spreadMethod="pad" x1="1109.49" x2="1376.18" y1="596.44" y2="596.44"><stop offset="0" stop-color="#9dcef3"/><stop offset="1" stop-color="#ddeffd"/></linearGradient><linearGradient gradientUnits="objectBoundingBox" id="linear-gradient-10" node-id="18" spreadMethod="pad" x1="408.96" x2="32.25" y1="330.9" y2="339.36"><stop offset="0" stop-color="#9dcef3"/><stop offset="1" stop-color="#ddeffd"/></linearGradient><linearGradient gradientUnits="objectBoundingBox" id="linear-gradient-11" node-id="19" spreadMethod="pad" x1="964" x2="1380.18" y1="324.76" y2="324.76"><stop offset="0" stop-color="#ed6263"/><stop offset="1" stop-color="#ffa9a9"/></linearGradient><linearGradient gradientUnits="objectBoundingBox" id="linear-gradient-12" node-id="22" spreadMethod="pad" x1="1001.67" x2="1183.27" y1="188.3" y2="188.3"><stop offset="0" stop-color="#ed6263"/><stop offset="1" stop-color="#ffa9a9"/></linearGradient><linearGradient gradientUnits="objectBoundingBox" id="linear-gradient-13" node-id="23" spreadMethod="pad" x1="948.05" x2="594.01" y1="564.5" y2="804.53"><stop offset="0" stop-color="#ed6263"/><stop offset="1" stop-color="#ffa9a9"/></linearGradient><linearGradient gradientUnits="objectBoundingBox" id="linear-gradient-14" node-id="24" spreadMethod="pad" x1="572.24" x2="169.68" y1="507.62" y2="752.04"><stop offset="0" stop-color="#ed6263"/><stop offset="0.19" stop-color="#f07071"/><stop offset="1" stop-color="#ffa9a9"/></linearGradient><linearGradient gradientUnits="objectBoundingBox" id="linear-gradient-15" node-id="28" spreadMethod="pad" x1="1022.22" x2="572.18" y1="207.9" y2="96.89"><stop offset="0" stop-color="#ed6263"/><stop offset="1" stop-color="#ffa9a9"/></linearGradient><linearGradient gradientUnits="objectBoundingBox" id="linear-gradient-16" node-id="29" spreadMethod="pad" x1="468" x2="681" y1="462.73" y2="462.73"><stop offset="0" stop-color="#002452"/><stop offset="1" stop-color="#001328"/></linearGradient><linearGradient gradientUnits="objectBoundingBox" id="linear-gradient-17" node-id="32" spreadMethod="pad" x1="603.04" x2="1056.22" y1="386.73" y2="386.73"><stop offset="0" stop-color="#404aa9"/><stop offset="1" stop-color="#7284d3"/></linearGradient><linearGradient gradientUnits="objectBoundingBox" id="linear-gradient-18" node-id="35" spreadMethod="pad" x1="59.44" x2="198.83" y1="813.11" y2="813.11"><stop offset="0" stop-color="#002452"/><stop offset="1" stop-color="#001328"/></linearGradient><linearGradient gradientUnits="objectBoundingBox" id="linear-gradient-19" node-id="36" spreadMethod="pad" x1="498.09" x2="628.45" y1="788.69" y2="788.69"><stop offset="0" stop-color="#002452"/><stop offset="1" stop-color="#001328"/></linearGradient><linearGradient gradientUnits="objectBoundingBox" id="linear-gradient-20" node-id="37" spreadMethod="pad" x1="1189.45" x2="1063.45" y1="173.44" y2="121.44"><stop offset="0" stop-color="#002452"/><stop offset="1" stop-color="#001328"/></linearGradient></defs><g node-id="307"><g node-id="308"><path d="M 1281.20 952.20 L 102.60 952.20 L 94.60 951.30 L 88.40 950.10 L 81.70 948.40 L 73.70 945.80 L 62.50 941.20 L 56.40 938.10 L 50.50 934.60 L 44.50 930.50 L 38.50 925.70 L 30.10 917.60 L 22.10 907.70 L 18.50 902.40 L 15.10 896.50 L 12.00 890.10 L 9.00 883.00 L 6.60 876.00 L 4.50 868.30 L 2.70 859.80 L 1.30 850.60 L 0.40 841.60 L 0.00 831.80 L 0.10 821.10 L 0.80 809.40 L 2.10 801.90 L 6.40 780.70 L 9.70 766.30 L 14.50 748.10 L 22.40 721.70 L 27.40 706.40 L 38.80 675.00 L 45.80 657.80 L 53.10 640.70 L 61.40 622.90 L 70.50 604.40 L 85.40 577.00 L 93.70 562.90 L 102.50 548.70 L 111.60 534.70 L 121.30 520.80 L 131.60 506.70 L 142.50 492.70 L 153.70 479.00 L 165.60 465.40 L 178.10 452.00 L 191.30 438.70 L 202.10 428.40 L 213.30 418.30 L 225.00 408.30 L 237.10 398.50 L 249.80 388.90 L 262.50 379.80 L 275.80 370.80 L 289.60 362.20 L 303.90 353.80 L 318.80 345.60 L 333.70 338.00 L 349.10 330.80 L 365.20 323.90 L 381.80 317.30 L 399.10 311.00 L 416.30 305.50 L 434.10 300.30 L 452.60 295.60 L 471.70 291.30 L 491.60 287.40 L 502.40 286.10 L 520.80 285.30 L 533.00 285.50 L 550.70 286.70 L 560.90 288.00 L 571.00 289.60 L 581.70 291.80 L 593.10 294.60 L 604.40 297.90 L 616.00 302.00 L 628.10 306.90 L 636.90 310.90 L 645.80 315.50 L 654.90 320.60 L 664.10 326.30 L 672.90 332.30 L 681.80 338.90 L 690.70 346.20 L 699.60 354.30 L 708.00 362.60 L 716.40 371.70 L 724.70 381.70 L 733.00 392.50 L 740.20 400.40 L 753.50 413.00 L 762.70 420.70 L 776.70 431.20 L 793.60 442.10 L 802.90 447.30 L 813.10 452.40 L 823.50 457.10 L 834.60 461.40 L 846.50 465.40 L 855.50 468.00 L 864.90 470.20 L 874.70 472.10 L 885.00 473.60 L 895.20 474.60 L 905.80 475.10 L 916.80 475.10 L 928.20 474.60 L 939.50 473.60 L 951.20 471.80 L 963.30 469.50 L 985.70 463.90 L 1002.60 461.10 L 1014.00 459.80 L 1030.70 458.90 L 1040.40 458.80 L 1060.30 459.70 L 1071.40 460.80 L 1082.40 462.40 L 1093.90 464.70 L 1105.90 467.60 L 1114.80 470.10 L 1133.10 476.50 L 1142.60 480.40 L 1151.80 484.70 L 1161.10 489.50 L 1170.60 494.90 L 1180.20 500.90 L 1189.40 507.30 L 1198.70 514.30 L 1208.10 522.10 L 1217.60 530.60 L 1226.50 539.40 L 1235.40 549.00 L 1244.40 559.60 L 1253.30 571.00 L 1266.60 590.00 L 1279.80 611.70 L 1286.30 623.70 L 1292.20 635.40 L 1298.10 647.80 L 1303.90 661.10 L 1309.60 675.10 L 1315.10 690.00 L 1320.20 704.60 L 1325.00 719.90 L 1329.70 736.20 L 1334.30 753.50 L 1338.70 771.70 L 1341.60 789.00 L 1343.50 807.90 L 1343.90 818.90 L 1343.90 831.30 L 1342.80 848.30 L 1341.70 857.30 L 1340.10 866.30 L 1338.10 875.20 L 1335.50 884.30 L 1330.60 897.40 L 1324.20 910.20 L 1320.50 916.40 L 1316.30 922.30 L 1311.70 928.00 L 1306.50 933.50 L 1301.10 938.60 L 1295.10 943.40 L 1288.50 948.00 L 1281.20 952.20 Z" fill="#e6f0f5" fill-rule="nonzero" group-id="1,2" node-id="210" stroke="none" target-height="666.9" target-width="1343.9" target-x="0" target-y="285.3"/></g><g node-id="309"><path d="M 1127.00 952.20 L 587.60 952.20 L 590.20 947.00 L 597.60 933.10 L 609.00 912.70 L 623.90 888.20 L 632.30 875.30 L 641.30 862.20 L 650.90 849.20 L 660.80 836.80 L 667.70 828.80 L 681.50 814.60 L 688.70 808.10 L 695.80 802.50 L 702.70 797.80 L 708.20 794.60 L 713.50 792.10 L 718.70 790.20 L 723.80 788.90 L 728.00 788.30 L 732.00 788.10 L 736.10 788.40 L 740.00 789.10 L 744.00 790.30 L 749.00 794.20 L 756.30 801.40 L 760.40 806.20 L 765.30 813.60 L 769.60 822.40 L 771.20 827.20 L 772.40 832.40 L 773.00 837.70 L 773.10 843.40 L 772.50 849.50 L 771.70 853.90 L 770.40 858.60 L 768.50 863.50 L 766.10 868.80 L 778.00 860.00 L 790.50 851.80 L 805.40 843.40 L 813.30 839.60 L 821.10 836.60 L 826.40 834.90 L 831.40 833.80 L 836.10 833.20 L 839.60 833.10 L 842.90 833.40 L 845.90 834.00 L 848.80 835.00 L 851.30 836.50 L 853.70 838.40 L 855.80 840.80 L 857.60 843.90 L 859.00 847.00 L 860.10 851.00 L 860.80 855.70 L 861.20 861.50 L 861.10 867.00 L 859.50 881.00 L 857.80 889.80 L 874.50 880.40 L 887.30 874.40 L 894.20 871.70 L 901.10 869.40 L 907.80 867.70 L 912.20 867.00 L 916.20 866.70 L 919.90 866.90 L 922.60 867.40 L 924.90 868.20 L 927.00 869.40 L 928.80 870.80 L 930.30 872.60 L 931.50 874.80 L 932.40 877.50 L 933.00 880.90 L 948.20 873.80 L 973.80 863.20 L 994.60 855.80 L 1005.40 852.50 L 1016.20 849.70 L 1026.50 847.60 L 1039.70 846.00 L 1050.10 846.10 L 1054.10 846.60 L 1061.00 848.60 L 1064.10 850.20 L 1066.80 852.10 L 1069.00 854.40 L 1070.90 857.10 L 1072.20 860.10 L 1073.10 863.50 L 1073.50 867.70 L 1073.40 872.60 L 1072.70 877.30 L 1071.50 882.70 L 1069.60 889.00 L 1066.80 896.40 L 1079.30 894.50 L 1091.80 893.60 L 1098.80 893.60 L 1110.60 894.70 L 1119.40 896.90 L 1123.50 898.60 L 1127.10 900.60 L 1130.30 903.10 L 1132.40 905.30 L 1134.10 907.80 L 1135.50 910.60 L 1136.60 913.80 L 1137.20 917.00 L 1137.30 920.70 L 1137.00 924.90 L 1136.10 929.80 L 1134.90 934.30 L 1133.00 939.50 L 1130.40 945.50 L 1127.00 952.20 Z" fill="url(#linear-gradient)" fill-rule="nonzero" group-id="1,3" node-id="214" stroke="none" target-height="164.10004" target-width="549.7001" target-x="587.6" target-y="788.1"/><path d="M 306.00 952.20 L 746.90 952.20 L 744.80 939.50 L 743.40 933.50 L 738.90 919.00 L 735.70 911.20 L 730.40 900.80 L 727.30 895.80 L 723.70 890.90 L 719.80 886.30 L 715.50 882.00 L 708.20 876.40 L 704.20 873.90 L 699.90 871.80 L 695.40 870.00 L 690.70 868.60 L 685.50 867.50 L 679.90 866.90 L 674.40 866.70 L 668.50 867.00 L 662.10 867.80 L 655.10 869.20 L 657.30 856.90 L 658.70 844.20 L 659.00 837.10 L 658.60 824.50 L 657.00 814.80 L 655.70 810.10 L 654.10 805.80 L 652.00 801.80 L 650.20 799.00 L 645.60 794.30 L 642.90 792.30 L 640.00 790.70 L 636.80 789.50 L 633.00 788.60 L 628.80 788.10 L 624.70 788.10 L 620.00 788.50 L 614.70 789.50 L 608.60 791.10 L 603.00 793.00 L 589.50 798.80 L 581.50 803.00 L 583.60 791.00 L 584.90 778.70 L 585.10 764.70 L 584.20 755.30 L 582.10 746.50 L 580.60 742.50 L 578.70 739.00 L 577.00 736.50 L 572.80 732.50 L 570.30 731.00 L 567.60 729.80 L 564.60 729.00 L 561.20 728.60 L 557.20 728.60 L 553.40 729.00 L 549.10 730.00 L 544.20 731.50 L 538.50 733.80 L 527.40 739.40 L 513.30 748.30 L 514.70 729.10 L 514.60 714.80 L 514.10 707.40 L 513.10 700.10 L 511.60 693.40 L 510.30 689.10 L 508.60 685.30 L 506.80 682.10 L 505.10 680.00 L 503.20 678.20 L 501.10 676.90 L 498.80 675.90 L 496.40 675.30 L 493.70 675.20 L 490.70 675.70 L 487.10 676.70 L 483.80 678.10 L 475.80 683.00 L 470.80 686.80 L 464.80 692.10 L 457.70 699.20 L 449.40 708.30 L 441.50 717.70 L 432.50 729.30 L 422.20 743.40 L 401.00 774.60 L 388.40 794.20 L 385.60 791.40 L 380.70 788.40 L 377.50 787.30 L 375.20 786.90 L 369.90 787.20 L 367.20 788.00 L 364.20 789.50 L 360.90 791.70 L 357.80 794.30 L 354.50 797.90 L 350.70 802.70 L 347.40 807.70 L 343.80 814.20 L 339.90 822.20 L 336.30 830.40 L 332.60 840.40 L 328.60 852.30 L 324.90 864.40 L 317.20 895.00 L 313.60 911.50 L 306.00 952.20 Z" fill="url(#linear-gradient-2)" fill-rule="nonzero" group-id="1,3" node-id="216" stroke="none" target-height="277" target-width="440.90002" target-x="306" target-y="675.2"/></g><g node-id="310"><path d="M 1140.10 902.30 L 1137.60 920.20 L 1135.40 930.70 L 1132.10 941.90 L 1129.90 947.20 L 1127.50 951.80 L 1084.50 951.80 L 1045.90 903.50 L 1041.60 896.30 L 1038.40 888.60 L 1037.10 884.20 L 1036.20 879.40 L 1036.10 872.90 L 1036.90 865.50 L 1036.70 862.50 L 1035.00 855.90 L 1031.70 849.50 L 1029.40 846.40 L 1026.40 843.00 L 1020.30 837.00 L 1018.10 834.50 L 1014.10 828.50 L 1011.00 821.40 L 1010.00 817.60 L 1009.40 813.50 L 1009.20 809.20 L 1009.50 804.80 L 1010.40 800.30 L 1011.90 795.40 L 1014.00 790.80 L 1016.80 785.90 L 1020.60 780.80 L 1023.60 777.20 L 1031.60 769.60 L 1036.60 765.60 L 1043.10 761.50 L 1047.10 759.60 L 1051.80 757.80 L 1056.60 756.60 L 1061.60 755.90 L 1064.90 755.90 L 1068.20 756.30 L 1071.40 757.20 L 1074.40 758.60 L 1077.30 760.50 L 1080.20 763.10 L 1081.90 765.30 L 1085.20 771.20 L 1086.70 775.10 L 1090.00 786.70 L 1090.90 793.80 L 1091.00 798.30 L 1089.20 828.50 L 1090.20 834.00 L 1091.20 836.90 L 1094.30 842.90 L 1096.40 845.70 L 1098.80 848.30 L 1101.60 850.70 L 1104.70 852.80 L 1108.20 854.40 L 1115.50 856.60 L 1119.00 858.20 L 1122.60 860.40 L 1125.90 863.10 L 1129.10 866.40 L 1132.10 870.20 L 1134.60 874.40 L 1136.80 879.10 L 1138.50 884.30 L 1140.00 892.70 L 1140.10 902.30 Z" fill="url(#linear-gradient-3)" fill-rule="nonzero" group-id="1,4" node-id="220" stroke="none" target-height="195.89996" target-width="130.89996" target-x="1009.2" target-y="755.9"/><path d="M 1103.20 953.70 L 1098.10 946.70 L 1093.30 939.10 L 1088.70 930.90 L 1084.40 922.50 L 1076.60 904.70 L 1071.40 890.90 L 1066.80 877.00 L 1062.60 863.10 L 1055.80 837.00 L 1049.20 805.20 L 1046.20 786.30 L 1049.20 785.90 L 1052.20 804.70 L 1058.70 836.20 L 1065.50 862.10 L 1069.60 875.90 L 1074.20 889.60 L 1079.30 903.30 L 1087.10 920.90 L 1091.30 929.30 L 1095.80 937.40 L 1100.60 944.90 L 1105.60 951.90 Z" fill="#ffffff" fill-rule="nonzero" group-id="1,4" node-id="222" stroke="none" target-height="167.79999" target-width="59.400024" target-x="1046.2" target-y="785.9"/><path d="M 1097.20 951.80 L 1034.00 951.80 L 1029.60 950.20 L 1026.20 948.40 L 1023.70 946.60 L 1021.50 944.40 L 1019.90 942.20 L 1018.80 939.90 L 1017.60 936.40 L 1016.20 924.00 L 1015.30 921.70 L 1012.70 918.20 L 1009.20 915.70 L 1006.10 914.40 L 999.50 912.80 L 991.00 911.60 L 987.20 910.70 L 981.30 908.10 L 979.00 906.60 L 976.30 904.10 L 974.30 901.40 L 972.80 898.60 L 971.80 895.50 L 971.20 892.40 L 971.00 889.30 L 971.70 883.30 L 972.40 880.60 L 974.60 875.90 L 979.00 870.70 L 982.20 867.80 L 988.30 863.50 L 992.70 861.40 L 996.80 860.00 L 1000.90 859.30 L 1005.00 859.00 L 1008.90 859.30 L 1012.60 860.00 L 1019.60 862.60 L 1025.70 866.40 L 1030.60 870.70 L 1034.20 875.50 L 1038.30 883.20 L 1040.30 886.00 L 1042.30 888.10 L 1046.70 891.20 L 1051.40 892.80 L 1053.30 893.00 L 1055.20 892.90 L 1059.10 891.80 L 1062.50 891.30 L 1065.70 891.20 L 1068.50 891.60 L 1071.30 892.40 L 1076.40 895.10 L 1078.70 897.00 L 1081.40 900.00 L 1083.90 903.30 L 1086.10 907.20 L 1089.00 913.30 L 1091.30 919.80 L 1094.60 932.90 L 1096.40 944.30 L 1097.20 951.80 Z" fill="url(#linear-gradient-4)" fill-rule="nonzero" group-id="1,4" node-id="224" stroke="none" target-height="92.79999" target-width="126.19995" target-x="971" target-y="859"/><path d="M 1243.40 877.70 L 1232.40 885.40 L 1229.40 887.80 L 1225.20 892.60 L 1223.00 896.90 L 1222.40 899.30 L 1222.10 901.80 L 1222.50 909.60 L 1222.20 913.50 L 1221.40 917.60 L 1218.80 925.90 L 1215.00 932.90 L 1212.50 936.30 L 1209.40 939.70 L 1205.70 943.10 L 1201.60 946.10 L 1196.80 949.10 L 1191.00 951.80 L 1121.70 951.80 L 1124.20 946.70 L 1127.60 932.00 L 1131.30 920.60 L 1136.70 908.30 L 1142.50 898.70 L 1148.00 892.10 L 1151.00 889.10 L 1154.30 886.50 L 1157.80 884.20 L 1161.50 882.40 L 1165.50 881.00 L 1176.40 878.90 L 1178.70 877.90 L 1181.50 875.50 L 1184.00 871.40 L 1185.10 868.60 L 1186.10 864.90 L 1187.40 856.40 L 1188.50 852.70 L 1190.20 848.50 L 1193.30 843.20 L 1197.80 838.30 L 1200.70 836.20 L 1204.00 834.40 L 1207.50 833.10 L 1211.70 832.20 L 1216.60 831.80 L 1220.20 831.90 L 1228.90 833.20 L 1236.90 835.50 L 1244.40 839.10 L 1250.70 843.60 L 1254.70 848.00 L 1256.20 850.60 L 1257.10 853.30 L 1257.60 856.30 L 1257.50 858.40 L 1257.00 860.80 L 1256.10 863.40 L 1252.80 868.70 L 1247.40 874.40 L 1243.40 877.70 Z" fill="url(#linear-gradient-5)" fill-rule="nonzero" group-id="1,4" node-id="226" stroke="none" target-height="120" target-width="135.90002" target-x="1121.7" target-y="831.8"/><path d="M 1079.90 952.70 L 1075.30 946.10 L 1070.30 939.90 L 1064.90 933.90 L 1053.50 922.80 L 1038.70 910.60 L 1030.20 904.50 L 1014.90 894.60 L 999.70 886.10 L 1001.00 883.40 L 1016.40 892.00 L 1023.60 896.50 L 1040.50 908.30 L 1049.70 915.50 L 1061.50 926.10 L 1067.20 931.90 L 1072.70 938.00 L 1077.70 944.40 L 1082.40 951.00 Z" fill="#ffffff" fill-rule="nonzero" group-id="1,4" node-id="228" stroke="none" target-height="69.29999" target-width="82.70001" target-x="999.7" target-y="883.4"/><path d="M 1157.10 952.20 L 1154.40 950.90 L 1164.00 932.80 L 1173.90 916.00 L 1179.80 906.80 L 1186.40 897.10 L 1193.40 887.60 L 1200.70 878.60 L 1205.90 872.70 L 1216.20 862.70 L 1221.70 858.30 L 1227.00 854.70 L 1232.20 851.90 L 1233.50 854.60 L 1229.00 857.00 L 1224.50 860.00 L 1215.30 867.60 L 1206.20 876.90 L 1199.70 884.60 L 1187.30 901.10 L 1176.40 917.80 L 1164.00 939.00 L 1157.10 952.20 Z" fill="#ffffff" fill-rule="nonzero" group-id="1,4" node-id="230" stroke="none" target-height="100.29999" target-width="79.099976" target-x="1154.4" target-y="851.9"/></g><g node-id="311"><path d="M 326.70 910.90 L 322.80 920.50 L 316.80 933.70 L 310.70 945.40 L 307.10 951.20 L 249.50 951.20 L 247.60 950.70 L 209.80 890.60 L 207.30 885.90 L 206.30 882.60 L 205.50 878.30 L 205.30 875.40 L 206.00 868.20 L 210.40 857.20 L 219.30 838.30 L 220.50 834.80 L 221.40 829.70 L 220.90 823.80 L 218.60 816.30 L 214.30 807.90 L 207.90 797.20 L 206.20 793.10 L 204.70 788.60 L 203.70 783.80 L 203.10 778.80 L 203.10 773.60 L 203.70 768.20 L 204.60 764.20 L 206.00 760.20 L 207.80 756.00 L 210.10 751.80 L 212.80 747.90 L 216.10 744.00 L 220.00 740.10 L 224.70 736.00 L 229.60 732.60 L 235.30 729.10 L 241.90 725.60 L 249.50 722.20 L 258.20 719.50 L 263.50 718.50 L 269.40 718.00 L 277.30 718.20 L 281.20 718.80 L 285.00 719.80 L 288.70 721.30 L 292.10 723.30 L 296.60 727.20 L 300.30 732.70 L 301.70 735.80 L 302.80 739.40 L 303.70 743.60 L 304.20 748.50 L 304.50 761.50 L 303.70 769.00 L 301.60 777.70 L 290.70 810.50 L 290.20 817.20 L 290.40 820.80 L 292.20 828.60 L 293.70 832.50 L 295.70 836.30 L 298.20 839.90 L 302.80 844.70 L 305.60 846.80 L 312.40 850.90 L 315.90 853.80 L 319.40 857.50 L 322.30 861.50 L 325.00 866.20 L 327.30 871.60 L 329.50 880.10 L 330.40 889.80 L 330.20 894.70 L 329.60 899.80 L 328.40 905.20 L 326.70 910.90 Z" fill="url(#linear-gradient-6)" fill-rule="nonzero" group-id="1,5" node-id="234" stroke="none" target-height="233.20001" target-width="127.29999" target-x="203.1" target-y="718"/><path d="M 268.80 951.50 L 265.20 941.90 L 262.00 931.80 L 259.20 921.20 L 256.90 910.40 L 254.90 899.40 L 253.30 888.20 L 251.10 865.70 L 249.90 838.00 L 250.20 807.20 L 251.50 780.80 L 254.60 748.90 L 257.60 749.30 L 254.50 781.00 L 253.20 807.20 L 252.90 822.30 L 252.90 837.80 L 253.50 854.20 L 255.00 876.40 L 257.80 898.70 L 262.00 920.30 L 264.80 930.80 L 268.00 940.80 L 271.60 950.30 Z" fill="#ffffff" fill-rule="nonzero" group-id="1,5" node-id="236" stroke="none" target-height="202.59998" target-width="21.700012" target-x="249.9" target-y="748.9"/><path d="M 256.00 951.70 L 180.90 951.70 L 176.60 950.10 L 170.50 946.80 L 168.00 944.80 L 164.50 940.80 L 162.70 937.50 L 161.60 934.20 L 161.00 930.80 L 160.30 921.90 L 159.70 918.60 L 158.70 915.90 L 157.30 913.60 L 155.60 911.60 L 153.60 910.00 L 151.40 908.60 L 147.70 907.10 L 139.80 905.30 L 129.70 903.90 L 125.20 902.80 L 121.40 901.40 L 118.10 899.80 L 112.80 895.90 L 108.90 891.30 L 107.60 888.80 L 106.30 885.30 L 105.50 881.70 L 105.20 878.10 L 105.40 874.40 L 106.00 871.00 L 107.00 867.70 L 108.30 864.50 L 109.90 861.80 L 111.70 859.50 L 115.70 855.40 L 119.60 851.90 L 123.30 849.20 L 130.90 845.00 L 134.60 843.60 L 141.90 842.00 L 146.70 841.70 L 151.40 842.00 L 155.80 842.80 L 160.00 844.10 L 164.00 845.80 L 171.20 850.20 L 176.90 855.30 L 181.20 861.00 L 185.50 869.20 L 187.40 872.10 L 191.40 876.40 L 195.40 879.20 L 198.30 880.60 L 200.80 881.30 L 204.70 881.70 L 206.20 881.60 L 210.10 880.40 L 213.80 879.70 L 217.10 879.50 L 220.20 879.70 L 223.20 880.40 L 228.80 882.60 L 231.30 884.30 L 234.40 886.90 L 237.20 890.00 L 239.90 893.60 L 244.30 901.50 L 248.70 912.70 L 250.70 919.50 L 253.60 932.90 L 255.30 944.10 L 256.00 951.70 Z" fill="url(#linear-gradient-7)" fill-rule="nonzero" group-id="1,5" node-id="238" stroke="none" target-height="110" target-width="150.8" target-x="105.2" target-y="841.7"/><path d="M 429.70 863.60 L 416.60 872.70 L 413.10 875.60 L 408.10 881.20 L 405.40 886.40 L 404.70 889.20 L 404.40 892.20 L 404.80 901.50 L 404.40 906.10 L 403.60 911.00 L 401.90 916.90 L 400.40 920.80 L 395.90 929.20 L 393.00 933.20 L 389.30 937.20 L 384.90 941.30 L 377.30 946.60 L 367.40 951.70 L 285.00 951.70 L 288.00 945.50 L 290.50 933.60 L 292.00 928.00 L 296.40 914.50 L 299.40 907.20 L 302.90 900.00 L 306.90 892.80 L 309.80 888.50 L 316.20 880.60 L 319.90 877.10 L 323.80 874.00 L 327.90 871.30 L 332.30 869.10 L 337.10 867.50 L 350.10 865.00 L 352.80 863.70 L 356.10 860.90 L 359.10 856.10 L 360.40 852.70 L 361.60 848.30 L 362.20 842.50 L 363.10 838.30 L 364.40 833.80 L 366.40 828.90 L 370.10 822.60 L 372.60 819.50 L 375.50 816.70 L 378.80 814.30 L 382.80 812.10 L 385.90 810.90 L 393.30 809.30 L 402.10 809.10 L 412.40 810.60 L 421.40 813.20 L 428.90 816.50 L 433.00 818.90 L 436.80 821.60 L 440.30 824.80 L 442.30 827.10 L 445.30 832.20 L 446.20 835.00 L 446.60 838.00 L 446.40 841.20 L 445.60 844.40 L 444.10 847.80 L 441.80 851.70 L 438.90 855.20 L 434.90 859.20 L 429.70 863.60 Z" fill="url(#linear-gradient-8)" fill-rule="nonzero" group-id="1,5" node-id="240" stroke="none" target-height="142.60004" target-width="161.6" target-x="285" target-y="809.1"/><path d="M 235.60 952.50 L 231.00 945.80 L 226.00 939.40 L 220.60 933.20 L 215.00 927.20 L 203.30 916.10 L 194.20 908.40 L 185.30 901.50 L 176.40 895.10 L 160.40 884.70 L 140.20 873.30 L 141.50 870.60 L 155.50 878.20 L 169.90 887.10 L 187.10 899.10 L 196.20 906.10 L 211.40 919.40 L 222.90 931.30 L 228.40 937.60 L 233.40 944.10 L 238.10 950.80 Z" fill="#ffffff" fill-rule="nonzero" group-id="1,5" node-id="242" stroke="none" target-height="81.900024" target-width="97.90001" target-x="140.2" target-y="870.6"/><path d="M 326.90 952.00 L 324.20 950.70 L 333.20 933.60 L 342.60 917.20 L 354.50 898.20 L 361.10 888.30 L 368.30 878.40 L 375.90 868.80 L 383.70 859.70 L 389.10 853.90 L 399.90 844.00 L 405.60 839.60 L 411.10 836.00 L 416.50 833.10 L 417.80 835.80 L 412.50 838.70 L 407.10 842.20 L 401.50 846.60 L 396.10 851.30 L 385.30 862.40 L 377.60 871.50 L 370.10 881.20 L 362.90 891.20 L 349.90 911.00 L 335.20 936.30 L 326.90 952.00 Z" fill="#ffffff" fill-rule="nonzero" group-id="1,5" node-id="244" stroke="none" target-height="118.900024" target-width="93.599976" target-x="324.2" target-y="833.1"/></g><g node-id="312"><path d="M 1109.50 638.40 L 1376.20 638.40 L 1373.00 629.90 L 1368.80 622.10 L 1365.90 618.10 L 1362.40 614.20 L 1357.00 609.80 L 1353.80 608.10 L 1350.50 606.70 L 1346.80 605.90 L 1342.70 605.50 L 1336.40 606.00 L 1328.90 608.30 L 1327.50 601.70 L 1326.00 596.80 L 1324.10 591.60 L 1321.30 585.50 L 1316.50 577.50 L 1313.40 573.40 L 1310.00 569.60 L 1306.10 565.90 L 1301.60 562.40 L 1298.10 560.20 L 1289.90 556.30 L 1285.20 554.80 L 1280.30 553.60 L 1275.30 552.90 L 1270.30 552.60 L 1265.30 552.80 L 1260.40 553.30 L 1250.30 555.70 L 1237.50 560.10 L 1225.60 565.90 L 1215.70 572.20 L 1206.00 580.00 L 1201.20 584.70 L 1196.70 589.70 L 1192.40 595.30 L 1188.20 601.50 L 1184.00 598.90 L 1180.80 597.50 L 1175.70 596.20 L 1172.60 595.80 L 1169.60 595.80 L 1166.20 596.30 L 1162.60 597.30 L 1159.10 598.80 L 1155.40 601.10 L 1151.30 604.20 L 1148.60 606.80 L 1142.70 614.00 L 1139.60 618.70 L 1132.30 618.70 L 1125.50 620.00 L 1121.90 621.40 L 1118.40 623.50 L 1116.30 625.20 L 1114.30 627.30 L 1112.60 629.90 L 1111.20 632.70 L 1110.20 636.10 L 1109.50 640.20" fill="url(#linear-gradient-9)" fill-rule="nonzero" group-id="1,6" node-id="248" stroke="none" target-height="87.60004" target-width="266.69995" target-x="1109.5" target-y="552.6"/><path d="M 39.00 389.20 L 389.30 389.20 L 387.10 382.80 L 385.10 378.10 L 382.70 373.30 L 379.50 367.80 L 374.30 360.80 L 371.20 357.50 L 367.80 354.40 L 364.10 351.70 L 359.90 349.40 L 356.60 348.00 L 353.10 347.00 L 349.40 346.30 L 345.30 346.00 L 341.30 346.20 L 337.00 346.80 L 332.30 347.90 L 327.10 349.70 L 325.80 343.20 L 322.70 332.80 L 320.30 326.40 L 317.20 319.90 L 313.30 313.00 L 306.90 303.90 L 303.00 299.50 L 298.70 295.30 L 294.00 291.40 L 288.60 287.70 L 284.50 285.30 L 275.00 281.10 L 269.70 279.40 L 263.30 277.90 L 256.80 277.00 L 250.20 276.60 L 243.70 276.80 L 237.10 277.50 L 230.70 278.80 L 223.90 280.60 L 210.10 285.20 L 197.70 290.80 L 191.50 294.00 L 178.40 302.30 L 172.10 307.10 L 165.80 312.60 L 159.40 318.70 L 155.00 323.60 L 146.40 334.60 L 142.30 340.80 L 138.30 338.20 L 135.00 336.50 L 131.40 335.10 L 123.70 333.50 L 116.50 333.50 L 112.80 334.10 L 108.90 335.30 L 104.60 337.10 L 100.60 339.30 L 96.30 342.40 L 91.70 346.40 L 85.40 353.50 L 78.50 363.40 L 73.00 363.20 L 69.00 363.40 L 64.80 364.00 L 60.00 365.10 L 53.80 367.70 L 50.70 369.60 L 47.90 371.90 L 45.40 374.70 L 43.10 378.10 L 41.70 380.80 L 39.60 387.50 L 39.00 391.70" fill="url(#linear-gradient-10)" fill-rule="nonzero" group-id="1,6" node-id="250" stroke="none" target-height="115.100006" target-width="350.3" target-x="39" target-y="276.6"/></g><g node-id="313"><path d="M 468.00 500.20 L 476.30 520.80 L 484.10 537.00 L 488.90 545.90 L 494.10 554.70 L 504.20 569.30 L 513.10 580.00 L 518.00 584.90 L 523.00 589.30 L 528.20 593.20 L 532.30 595.80 L 536.50 598.00 L 545.00 601.20 L 554.00 588.20 L 480.00 494.20 Z" fill="#0a0e1e" fill-rule="nonzero" group-id="1,7" node-id="254" stroke="none" target-height="107" target-width="86" target-x="468" target-y="494.2"/><path d="M 1377.80 159.60 L 1353.00 220.80 L 1314.10 291.90 L 1166.90 488.10 L 1163.70 491.90 L 1160.20 495.20 L 1156.40 498.20 L 1152.20 500.70 L 1147.90 502.80 L 1143.30 504.40 L 1138.60 505.50 L 1133.80 506.10 L 1128.90 506.20 L 1123.90 505.70 L 1119.20 504.80 L 1114.50 503.30 L 1110.10 501.40 L 1105.90 499.00 L 1102.00 496.20 L 1098.40 492.90 L 1095.20 489.30 L 1092.30 485.30 L 964.00 285.10 L 1033.40 195.90 L 1135.00 383.00 L 1287.20 247.70 L 1287.80 238.10 L 1287.80 233.60 L 1287.30 228.30 L 1286.50 222.90 L 1285.10 217.20 L 1282.10 209.90 L 1280.10 206.30 L 1277.70 203.00 L 1274.90 199.90 L 1271.60 197.10 L 1275.20 194.50 L 1278.00 193.10 L 1281.10 192.00 L 1284.60 191.50 L 1287.00 191.50 L 1289.50 192.10 L 1292.20 193.20 L 1294.60 194.70 L 1297.10 197.10 L 1299.80 200.50 L 1302.00 204.20 L 1304.30 209.20 L 1306.60 215.70 L 1324.30 199.20 L 1326.40 188.30 L 1329.30 178.10 L 1331.30 172.80 L 1333.70 167.90 L 1335.50 164.80 L 1337.50 162.10 L 1341.40 158.50 L 1343.30 157.40 L 1347.40 156.50 L 1349.90 151.80 L 1353.70 148.10 L 1357.40 146.10 L 1362.10 144.90 L 1368.40 144.90 L 1370.20 143.90 L 1372.20 143.40 L 1374.40 143.30 L 1376.10 143.60 L 1377.40 144.20 L 1379.30 146.40 L 1379.90 148.00 L 1380.20 150.50 L 1379.90 153.50 L 1379.10 156.50 L 1377.80 159.60 Z" fill="url(#linear-gradient-11)" fill-rule="nonzero" group-id="1,7" node-id="256" stroke="none" target-height="362.90002" target-width="416.19995" target-x="964" target-y="143.3"/><g node-id="314"><path d="M 1071.90 266.80 L 1070.50 276.00 L 1068.60 284.90 L 1066.10 293.50 L 1063.20 301.90 L 1059.90 310.00 L 1056.30 317.60 L 1048.30 332.20 L 1044.00 338.80 L 1037.40 348.20 L 1031.00 356.50 L 1018.70 370.50 L 964.00 285.10 L 1033.40 195.90 Z" fill="#000000" fill-opacity="0.2" fill-rule="nonzero" group-id="1,7,8" node-id="260" stroke="none" target-height="174.6" target-width="107.900024" target-x="964" target-y="195.9"/></g><path d="M 1032.30 269.20 L 1084.80 239.20 L 1088.70 243.10 L 1095.50 248.20 L 1103.30 252.20 L 1110.70 254.20 L 1114.60 254.70 L 1118.70 254.60 L 1123.20 254.00 L 1129.80 251.90 L 1137.20 248.00 L 1144.30 242.40 L 1148.20 238.70 L 1155.80 229.50 L 1159.60 224.10 L 1167.70 210.30 L 1171.40 203.00 L 1179.20 185.20 L 1183.30 174.40 L 1100.30 107.40 L 1053.30 165.10 L 1001.70 203.10 Z" fill="url(#linear-gradient-12)" fill-rule="nonzero" group-id="1,7" node-id="263" stroke="none" target-height="161.80002" target-width="181.60004" target-x="1001.7" target-y="107.4"/><path d="M 901.00 711.70 L 614.00 779.70 L 577.00 697.70 L 792.00 621.70 L 766.00 597.70 L 879.00 546.70 L 887.40 559.90 L 901.10 582.90 L 911.50 602.10 L 916.60 612.40 L 925.90 633.30 L 929.90 643.80 L 933.00 653.70 L 935.00 663.40 L 935.30 671.40 L 934.80 676.60 L 933.80 681.20 L 932.30 685.30 L 930.40 689.30 L 928.30 692.80 L 923.20 698.70 L 917.70 703.40 L 909.60 708.30 L 901.00 711.70 Z" fill="url(#linear-gradient-13)" fill-rule="nonzero" group-id="1,7" node-id="265" stroke="none" target-height="233" target-width="358.3" target-x="577" target-y="546.7"/><path d="M 556.10 584.10 L 476.90 638.90 L 469.90 643.20 L 188.00 798.20 L 140.40 719.30 L 403.50 555.90 L 493.10 482.10 Z" fill="url(#linear-gradient-14)" fill-rule="nonzero" group-id="1,7" node-id="267" stroke="none" target-height="316.1" target-width="415.69998" target-x="140.4" target-y="482.1"/><g node-id="315"><path d="M 556.10 584.10 L 525.90 605.00 L 522.30 595.60 L 518.40 586.50 L 514.10 577.90 L 509.50 569.40 L 499.90 553.90 L 492.30 543.10 L 485.20 533.80 L 471.90 518.20 L 461.90 507.80 L 493.10 482.10 Z" fill="#000000" fill-opacity="0.2" fill-rule="nonzero" group-id="1,7,9" node-id="271" stroke="none" target-height="122.899994" target-width="94.19998" target-x="461.9" target-y="482.1"/></g><g node-id="316"><path d="M 896.20 574.40 L 886.10 580.80 L 875.90 586.70 L 865.40 592.20 L 854.70 597.10 L 843.70 601.60 L 832.60 605.70 L 821.30 609.20 L 809.90 612.20 L 798.30 614.70 L 786.60 616.80 L 766.00 597.80 L 879.00 546.80 L 887.40 559.90 L 896.20 574.40 Z" fill="#000000" fill-opacity="0.2" fill-rule="nonzero" group-id="1,7,10" node-id="276" stroke="none" target-height="70" target-width="130.20001" target-x="766" target-y="546.8"/></g><path d="M 1050.50 270.20 L 902.50 349.20 L 830.50 223.20 L 887.80 171.90 L 830.60 82.10 L 676.10 97.70 L 661.90 118.90 L 626.10 170.70 L 624.20 167.40 L 623.00 164.10 L 622.30 160.90 L 622.00 157.50 L 622.60 151.00 L 623.80 146.20 L 625.50 141.80 L 627.50 137.70 L 629.50 134.30 L 634.60 127.20 L 610.50 123.20 L 553.70 142.90 L 552.00 143.20 L 550.30 143.10 L 547.30 141.70 L 546.20 140.50 L 545.30 138.90 L 544.90 137.20 L 544.90 135.50 L 545.30 133.90 L 546.10 132.50 L 547.20 131.30 L 548.70 130.30 L 585.20 113.60 L 530.20 119.80 L 528.30 119.70 L 526.60 119.30 L 525.10 118.50 L 523.80 117.30 L 522.80 115.90 L 522.20 114.10 L 522.10 111.10 L 523.30 108.30 L 524.30 107.20 L 526.80 105.60 L 581.00 95.20 L 533.00 91.90 L 531.30 91.60 L 529.80 91.00 L 528.40 89.90 L 527.40 88.60 L 526.70 87.10 L 526.40 85.40 L 526.50 83.60 L 527.10 82.00 L 528.10 80.60 L 529.30 79.40 L 530.80 78.70 L 532.60 78.30 L 580.80 74.00 L 546.10 66.40 L 544.00 64.40 L 543.20 61.70 L 543.80 59.00 L 544.60 58.00 L 546.60 56.50 L 549.20 56.10 L 581.90 58.30 L 618.50 53.00 L 655.60 50.80 L 848.40 2.00 L 854.40 0.80 L 860.50 0.10 L 866.50 0.10 L 872.50 0.50 L 878.30 1.60 L 884.10 3.10 L 889.70 5.20 L 895.00 7.80 L 900.20 10.90 L 905.00 14.50 L 909.50 18.60 L 913.70 23.10 L 1013.50 142.20 L 1030.00 160.20 L 1034.30 163.70 L 1038.00 167.20 L 1041.10 170.90 L 1043.60 174.80 L 1045.70 178.90 L 1047.40 183.10 L 1048.70 187.50 L 1049.50 191.90 L 1050.10 198.00 L 1050.20 204.10 L 1049.70 210.30 L 1048.70 216.50 L 1045.80 228.50 L 1042.80 237.20 L 1039.60 245.10 L 1033.00 258.70 L 1025.50 271.20 Z" fill="url(#linear-gradient-15)" fill-rule="nonzero" group-id="1,7" node-id="279" stroke="none" target-height="349.1" target-width="528.4" target-x="522.1" target-y="0.1"/><path d="M 681.00 513.70 L 545.00 600.70 L 539.00 584.40 L 531.60 568.60 L 522.90 553.60 L 513.00 539.20 L 505.00 530.20 L 495.30 521.20 L 485.40 512.90 L 468.00 499.70 L 556.00 428.70 L 559.50 420.80 L 566.20 408.00 L 571.10 399.90 L 576.70 391.60 L 583.60 382.50 L 588.60 376.60 L 600.30 364.40 L 606.70 358.60 L 613.70 353.00 L 621.40 347.50 L 633.60 340.20 L 640.20 336.80 L 647.20 333.60 L 654.30 330.90 L 661.80 328.50 L 669.70 326.40 L 678.00 324.70 Z" fill="url(#linear-gradient-16)" fill-rule="nonzero" group-id="1,7" node-id="281" stroke="none" target-height="276" target-width="213" target-x="468" target-y="324.7"/><path d="M 1038.00 166.70 L 1034.00 163.70 L 1037.00 169.70 L 1038.80 174.60 L 1040.70 182.10 L 1041.90 191.60 L 1042.00 196.80 L 1041.60 202.50 L 1040.70 208.20 L 1039.10 214.30 L 1036.80 220.80 L 1032.10 230.30 L 1025.00 240.70 L 1015.30 250.50 L 1004.20 260.20 L 990.00 270.80 L 981.90 275.90 L 973.30 280.80 L 967.30 283.60 L 954.80 288.30 L 948.30 290.00 L 941.80 291.10 L 935.30 291.70 L 930.30 291.80 L 925.40 291.40 L 920.40 290.70 L 915.40 289.50 L 910.60 287.80 L 905.80 285.70 L 900.90 283.00 L 889.90 275.30 L 880.90 267.50 L 872.40 258.40 L 866.00 249.70 L 863.10 245.00 L 860.50 239.90 L 857.00 230.50 L 855.40 221.80 L 855.10 217.20 L 855.20 212.70 L 855.80 208.00 L 856.90 203.20 L 858.60 198.10 L 856.50 198.40 L 850.10 200.20 L 845.60 202.10 L 839.00 205.40 L 832.00 209.50 L 822.70 215.60 L 813.00 222.80 L 800.90 232.50 L 783.40 247.90 L 773.00 257.70 L 678.00 324.70 L 671.00 326.90 L 659.90 331.50 L 653.10 334.90 L 643.80 340.60 L 634.10 347.90 L 629.40 352.20 L 624.80 357.00 L 620.50 362.10 L 616.50 367.70 L 612.90 374.00 L 608.40 384.00 L 605.10 395.60 L 604.00 401.60 L 603.30 408.00 L 603.10 414.90 L 603.30 422.30 L 604.00 430.00 L 605.30 437.60 L 607.10 445.00 L 609.30 452.30 L 612.10 459.40 L 615.30 466.40 L 618.90 473.10 L 623.10 479.60 L 629.60 489.00 L 638.40 500.60 L 652.10 516.90 L 669.20 535.00 L 678.90 544.40 L 698.10 561.20 L 716.60 575.50 L 726.90 582.70 L 737.10 589.60 L 748.10 596.40 L 759.70 603.10 L 772.00 609.70 L 801.70 599.40 L 820.10 592.20 L 839.90 583.80 L 849.80 579.10 L 868.50 569.20 L 876.60 564.20 L 881.80 560.60 L 890.00 553.70 L 878.80 536.20 L 866.20 517.40 L 850.30 494.80 L 841.50 482.80 L 822.20 458.20 L 812.20 446.40 L 805.40 438.70 L 792.00 424.70 L 920.00 373.70 L 942.80 366.70 L 961.20 359.70 L 971.50 355.30 L 981.90 350.40 L 992.60 344.90 L 1006.60 336.60 L 1019.80 327.20 L 1026.00 322.10 L 1031.70 316.80 L 1037.00 311.20 L 1041.70 305.30 L 1045.80 299.20 L 1048.50 294.40 L 1050.70 289.50 L 1052.50 284.40 L 1053.90 279.20 L 1054.70 273.90 L 1055.10 268.40 L 1054.80 262.70 L 1054.00 256.70 L 1038.00 264.70 L 1043.80 254.30 L 1046.20 249.10 L 1051.20 236.10 L 1054.50 223.60 L 1056.00 212.90 L 1056.20 207.50 L 1056.00 202.00 L 1055.30 196.60 L 1054.10 191.30 L 1052.20 186.00 L 1049.80 180.80 L 1047.50 177.20 L 1044.90 173.60 L 1041.70 170.20 L 1038.00 166.70 Z" fill="url(#linear-gradient-17)" fill-rule="nonzero" group-id="1,7" node-id="283" stroke="none" target-height="446" target-width="453.09998" target-x="603.1" target-y="163.7"/><path d="M 198.80 796.30 L 152.10 820.90 L 159.30 908.70 L 59.40 761.20 L 141.60 717.50 L 198.80 796.30 Z" fill="url(#linear-gradient-18)" fill-rule="nonzero" group-id="1,7" node-id="285" stroke="none" target-height="191.20001" target-width="139.4" target-x="59.4" target-y="717.5"/><path d="M 628.50 781.30 L 578.00 796.60 L 568.60 884.30 L 498.10 720.70 L 587.00 693.10 L 628.50 781.30 Z" fill="url(#linear-gradient-19)" fill-rule="nonzero" group-id="1,7" node-id="287" stroke="none" target-height="191.20001" target-width="130.4" target-x="498.1" target-y="693.1"/><path d="M 1118.90 181.90 L 1120.90 177.00 L 1122.80 169.70 L 1123.30 165.60 L 1123.00 160.20 L 1122.30 157.60 L 1121.20 155.30 L 1119.50 153.30 L 1117.30 151.50 L 1115.20 150.60 L 1112.40 150.10 L 1108.20 150.20 L 1103.90 151.70 L 1102.00 153.00 L 1100.20 154.80 L 1098.70 157.00 L 1097.60 159.70 L 1096.80 163.30 L 1091.70 166.10 L 1086.50 168.40 L 1081.00 170.20 L 1075.40 171.40 L 1069.70 172.10 L 1063.90 172.20 L 1060.10 171.60 L 1049.10 169.20 L 1050.40 158.60 L 1053.40 147.40 L 1055.80 141.10 L 1059.10 134.10 L 1061.60 129.50 L 1068.20 120.00 L 1072.10 115.40 L 1076.60 110.90 L 1081.70 106.50 L 1087.10 102.40 L 1093.30 98.60 L 1102.40 94.00 L 1104.70 93.30 L 1111.10 92.30 L 1118.20 92.50 L 1122.00 93.10 L 1131.30 95.80 L 1136.10 97.80 L 1141.50 100.60 L 1147.50 104.30 L 1153.20 108.40 L 1159.60 113.60 L 1166.50 120.10 L 1173.10 126.90 L 1180.30 135.20 L 1188.10 145.10 L 1190.50 148.80 L 1192.40 152.80 L 1193.70 157.00 L 1194.40 161.40 L 1194.40 164.60 L 1193.90 167.80 L 1193.20 169.80 L 1192.10 171.50 L 1190.70 173.10 L 1189.00 174.40 L 1186.70 175.30 L 1183.80 176.00 L 1180.60 176.10 L 1177.60 175.70 L 1174.60 174.80 L 1171.80 173.50 L 1163.30 168.60 L 1161.70 171.50 L 1159.60 174.00 L 1157.20 176.10 L 1154.50 177.90 L 1151.50 179.10 L 1148.20 179.80 L 1132.20 181.90 L 1126.00 191.70 Z" fill="url(#linear-gradient-20)" fill-rule="nonzero" group-id="1,7" node-id="289" stroke="none" target-height="99.399994" target-width="145.30005" target-x="1049.1" target-y="92.3"/><g node-id="317"><path d="M 1339.60 193.00 L 1345.60 156.00 L 1348.50 156.50 L 1342.50 193.50 Z" fill="#161c3e" fill-rule="nonzero" group-id="1,7,11" node-id="293" stroke="none" target-height="37.5" target-width="8.900024" target-x="1339.6" target-y="156"/></g><g node-id="318"><path d="M 1356.10 189.40 L 1367.10 144.40 L 1370.00 145.10 L 1359.00 190.10 Z" fill="#161c3e" fill-rule="nonzero" group-id="1,7,12" node-id="298" stroke="none" target-height="45.700012" target-width="13.900024" target-x="1356.1" target-y="144.4"/></g><path d="M 1289.30 248.00 L 1286.70 246.60 L 1297.90 228.50 L 1306.90 216.20 L 1312.00 210.10 L 1317.50 204.30 L 1323.00 199.10 L 1325.00 201.40 L 1319.50 206.40 L 1314.10 212.20 L 1309.10 218.30 L 1300.10 230.60 L 1289.30 248.00 Z" fill="#161c3e" fill-rule="nonzero" group-id="1,7" node-id="301" stroke="none" target-height="48.899994" target-width="38.30005" target-x="1286.7" target-y="199.1"/><g node-id="319"><path d="M 967.00 233.20 L 959.20 234.20 L 948.40 234.00 L 936.80 232.30 L 930.70 230.90 L 924.00 228.80 L 911.00 223.50 L 899.10 216.90 L 886.60 208.40 L 880.30 203.30 L 873.70 197.50 L 866.70 190.80 L 887.50 172.20 L 900.10 187.10 L 907.30 194.90 L 920.60 207.80 L 931.80 217.00 L 937.70 221.20 L 943.60 224.80 L 949.40 227.80 L 958.40 231.40 L 967.00 233.20 Z" fill="#000000" fill-opacity="0.2" fill-rule="nonzero" group-id="1,7,13" node-id="305" stroke="none" target-height="62" target-width="100.29999" target-x="866.7" target-y="172.2"/></g></g></g></svg>