<svg height="928" node-id="1" sillyvg="true" template-height="928" template-width="1250" version="1.1" viewBox="0 0 1250 928" width="1250" xmlns="http://www.w3.org/2000/svg" xmlns:xlink="http://www.w3.org/1999/xlink"><defs node-id="73"><linearGradient gradientUnits="objectBoundingBox" id="linear-gradient" node-id="5" spreadMethod="pad" x1="584.87" x2="916.52" y1="971.81" y2="812.61"><stop offset="0" stop-color="#9dcef3"/><stop offset="1" stop-color="#ddeffd"/></linearGradient><linearGradient gradientUnits="objectBoundingBox" id="linear-gradient-2" node-id="8" spreadMethod="pad" x1="267.56" x2="655.56" y1="786.12" y2="802.12"><stop offset="0" stop-color="#9dcef3"/><stop offset="1" stop-color="#ddeffd"/></linearGradient><linearGradient gradientUnits="objectBoundingBox" id="linear-gradient-3" node-id="9" spreadMethod="pad" x1="192.39" x2="124.39" y1="928.13" y2="703.13"><stop offset="0" stop-color="#90bfa5"/><stop offset="1" stop-color="#c4dfcc"/></linearGradient><linearGradient gradientUnits="objectBoundingBox" id="linear-gradient-4" node-id="12" spreadMethod="pad" x1="0" x2="150.77" y1="871.41" y2="871.41"><stop offset="0" stop-color="#90bfa5"/><stop offset="1" stop-color="#c4dfcc"/></linearGradient><linearGradient gradientUnits="objectBoundingBox" id="linear-gradient-5" node-id="13" spreadMethod="pad" x1="267.78" x2="247.78" y1="912.46" y2="791.46"><stop offset="0" stop-color="#90bfa5"/><stop offset="1" stop-color="#c4dfcc"/></linearGradient><linearGradient gradientUnits="objectBoundingBox" id="linear-gradient-6" node-id="14" spreadMethod="pad" x1="1063.74" x2="974.29" y1="926.34" y2="693.3"><stop offset="0" stop-color="#90bfa5"/><stop offset="1" stop-color="#c4dfcc"/></linearGradient><linearGradient gradientUnits="objectBoundingBox" id="linear-gradient-7" node-id="15" spreadMethod="pad" x1="880.82" x2="1043.54" y1="866.47" y2="866.47"><stop offset="0" stop-color="#90bfa5"/><stop offset="1" stop-color="#c4dfcc"/></linearGradient><linearGradient gradientUnits="objectBoundingBox" id="linear-gradient-8" node-id="16" spreadMethod="pad" x1="1075.11" x2="1250.4" y1="848.92" y2="848.92"><stop offset="0" stop-color="#90bfa5"/><stop offset="1" stop-color="#c4dfcc"/></linearGradient><linearGradient gradientUnits="objectBoundingBox" id="linear-gradient-9" node-id="17" spreadMethod="pad" x1="546.82" x2="706.82" y1="277.78" y2="277.78"><stop offset="0" stop-color="#ed6263"/><stop offset="1" stop-color="#ffa9a9"/></linearGradient><linearGradient gradientUnits="objectBoundingBox" id="linear-gradient-10" node-id="20" spreadMethod="pad" x1="558.96" x2="686.96" y1="94.57" y2="174.57"><stop offset="0" stop-color="#ed6263"/><stop offset="1" stop-color="#ffa9a9"/></linearGradient><linearGradient gradientUnits="objectBoundingBox" id="linear-gradient-11" node-id="21" spreadMethod="pad" x1="535.03" x2="173.03" y1="392.35" y2="624.35"><stop offset="0" stop-color="#ed6263"/><stop offset="1" stop-color="#ffa9a9"/></linearGradient><linearGradient gradientUnits="objectBoundingBox" id="linear-gradient-12" node-id="22" spreadMethod="pad" x1="741.15" x2="1043.15" y1="400.18" y2="599.18"><stop offset="0" stop-color="#ed6263"/><stop offset="1" stop-color="#ffa9a9"/></linearGradient><linearGradient gradientUnits="objectBoundingBox" id="linear-gradient-13" node-id="23" spreadMethod="pad" x1="448.64" x2="800.64" y1="657.34" y2="297.34"><stop offset="0" stop-color="#3baca0"/><stop offset="1" stop-color="#58c6b6"/></linearGradient><linearGradient gradientUnits="objectBoundingBox" id="linear-gradient-14" node-id="26" spreadMethod="pad" x1="876.55" x2="350.08" y1="707.21" y2="708.71"><stop offset="0" stop-color="#404aa9"/><stop offset="1" stop-color="#7284d3"/></linearGradient><linearGradient gradientUnits="objectBoundingBox" id="linear-gradient-15" node-id="29" spreadMethod="pad" x1="776.16" x2="242.16" y1="847.31" y2="637.31"><stop offset="0" stop-color="#ed6263"/><stop offset="1" stop-color="#ffa9a9"/></linearGradient><linearGradient gradientUnits="objectBoundingBox" id="linear-gradient-16" node-id="30" spreadMethod="pad" x1="963.68" x2="533.68" y1="637.18" y2="861.18"><stop offset="0" stop-color="#ed6263"/><stop offset="1" stop-color="#ffa9a9"/></linearGradient><linearGradient gradientUnits="objectBoundingBox" id="linear-gradient-17" node-id="31" spreadMethod="pad" x1="711.82" x2="561.83" y1="79.97" y2="82.97"><stop offset="0" stop-color="#002452"/><stop offset="1" stop-color="#001328"/></linearGradient></defs><g node-id="260"><g node-id="261"><path d="M 1195.00 560.60 L 1194.80 577.40 L 1194.00 594.10 L 1192.80 610.70 L 1191.10 627.20 L 1188.90 643.60 L 1186.20 660.00 L 1183.10 676.30 L 1179.40 692.40 L 1175.30 708.40 L 1170.70 724.20 L 1165.70 739.90 L 1160.20 755.50 L 1154.20 770.90 L 1147.80 786.10 L 1141.00 801.10 L 1133.70 815.90 L 1125.90 830.50 L 1117.70 844.90 L 1109.10 859.10 L 1100.00 872.90 L 1090.60 886.60 L 1080.70 900.00 L 1070.30 913.10 L 1059.60 926.00 L 209.30 926.00 L 198.50 913.10 L 188.10 900.00 L 178.20 886.60 L 168.80 872.90 L 159.70 859.10 L 151.10 844.90 L 142.90 830.50 L 135.20 815.90 L 127.90 801.10 L 121.00 786.10 L 114.60 770.90 L 108.60 755.50 L 103.10 739.90 L 98.10 724.20 L 93.50 708.40 L 89.40 692.40 L 85.80 676.30 L 82.60 660.00 L 79.90 643.60 L 77.70 627.20 L 76.00 610.70 L 74.80 594.10 L 74.10 577.40 L 73.80 560.60 L 74.10 543.30 L 74.90 526.20 L 76.10 509.40 L 77.90 492.70 L 80.10 476.20 L 82.90 459.80 L 86.10 443.50 L 89.80 427.40 L 93.90 411.40 L 98.40 395.80 L 103.40 380.30 L 108.90 365.00 L 114.80 349.80 L 121.10 334.90 L 127.80 320.20 L 134.90 305.80 L 142.40 291.60 L 150.40 277.70 L 158.70 263.90 L 167.40 250.40 L 176.40 237.30 L 185.80 224.40 L 195.50 211.80 L 205.70 199.40 L 216.10 187.40 L 226.90 175.60 L 238.00 164.20 L 249.40 153.10 L 261.20 142.30 L 273.20 131.80 L 285.60 121.70 L 298.20 112.00 L 311.10 102.60 L 324.30 93.50 L 337.70 84.90 L 351.50 76.50 L 365.40 68.60 L 379.60 61.10 L 394.00 54.00 L 408.70 47.30 L 423.60 41.00 L 438.80 35.10 L 454.10 29.60 L 469.60 24.60 L 485.30 20.10 L 501.20 15.90 L 517.30 12.30 L 533.60 9.00 L 550.00 6.30 L 566.50 4.10 L 583.20 2.30 L 600.10 1.00 L 617.10 0.30 L 634.40 0.00 L 651.70 0.30 L 668.80 1.00 L 685.60 2.30 L 702.30 4.10 L 718.80 6.30 L 735.20 9.00 L 751.50 12.30 L 767.70 15.90 L 783.60 20.10 L 799.30 24.60 L 814.70 29.60 L 830.00 35.10 L 845.20 41.00 L 860.10 47.30 L 874.80 54.00 L 889.20 61.10 L 903.40 68.60 L 917.40 76.50 L 931.10 84.90 L 944.60 93.50 L 957.70 102.60 L 970.60 112.00 L 983.20 121.70 L 995.60 131.80 L 1007.70 142.30 L 1019.40 153.10 L 1030.80 164.20 L 1041.90 175.60 L 1052.70 187.40 L 1063.20 199.40 L 1073.30 211.80 L 1083.00 224.40 L 1092.40 237.30 L 1101.50 250.40 L 1110.10 263.90 L 1118.50 277.70 L 1126.40 291.60 L 1133.90 305.80 L 1141.00 320.20 L 1147.70 334.90 L 1154.00 349.80 L 1159.90 365.00 L 1165.40 380.30 L 1170.40 395.80 L 1174.90 411.40 L 1179.10 427.40 L 1182.70 443.50 L 1186.00 459.80 L 1188.70 476.20 L 1190.90 492.70 L 1192.70 509.40 L 1194.00 526.20 L 1194.70 543.30 L 1195.00 560.60 Z" fill="#e6f0f5" fill-rule="nonzero" group-id="1,2" node-id="181" stroke="none" target-height="926" target-width="1121.2" target-x="73.8" target-y="0"/></g><g node-id="262"><path d="M 1051.80 927.00 L 512.40 927.00 L 515.00 921.80 L 522.40 907.80 L 533.90 887.40 L 548.70 863.00 L 557.10 850.10 L 566.20 836.90 L 575.70 824.00 L 585.60 811.60 L 592.50 803.60 L 606.30 789.30 L 613.50 782.80 L 620.60 777.30 L 627.50 772.60 L 633.00 769.40 L 638.30 766.90 L 643.50 765.00 L 648.60 763.70 L 652.80 763.00 L 656.90 762.90 L 660.90 763.10 L 664.90 763.90 L 668.80 765.10 L 673.90 769.00 L 681.10 776.10 L 685.20 781.00 L 690.10 788.40 L 694.40 797.20 L 696.00 802.00 L 697.20 807.20 L 697.80 812.50 L 697.90 818.20 L 697.40 824.20 L 696.50 828.70 L 695.20 833.40 L 693.30 838.30 L 690.90 843.50 L 702.80 834.80 L 715.30 826.60 L 730.20 818.10 L 738.10 814.40 L 745.90 811.30 L 751.20 809.70 L 756.20 808.60 L 760.90 808.00 L 764.50 807.90 L 767.70 808.10 L 770.80 808.80 L 773.60 809.80 L 776.20 811.20 L 778.50 813.10 L 780.60 815.60 L 782.50 818.60 L 783.80 821.80 L 784.90 825.70 L 785.70 830.50 L 786.00 836.30 L 785.90 841.70 L 784.30 855.70 L 782.70 864.50 L 799.30 855.20 L 812.10 849.20 L 819.00 846.40 L 826.00 844.10 L 832.60 842.50 L 837.00 841.70 L 841.10 841.50 L 844.70 841.70 L 849.70 843.00 L 851.80 844.10 L 853.70 845.60 L 855.10 847.30 L 856.40 849.50 L 857.30 852.30 L 857.80 855.70 L 873.00 848.60 L 898.60 837.90 L 919.50 830.50 L 930.20 827.20 L 941.00 824.40 L 951.30 822.30 L 964.60 820.70 L 974.90 820.80 L 978.90 821.40 L 985.80 823.40 L 988.90 824.90 L 991.60 826.90 L 993.80 829.20 L 995.70 831.90 L 997.00 834.80 L 997.90 838.30 L 998.30 842.50 L 998.20 847.40 L 997.60 852.00 L 996.30 857.50 L 994.40 863.80 L 991.60 871.20 L 1004.10 869.20 L 1016.70 868.30 L 1023.60 868.30 L 1035.50 869.40 L 1044.20 871.70 L 1048.30 873.30 L 1051.90 875.40 L 1055.10 877.90 L 1057.20 880.10 L 1058.90 882.50 L 1060.30 885.30 L 1061.40 888.50 L 1062.00 891.70 L 1062.20 895.40 L 1061.80 899.70 L 1061.00 904.60 L 1057.90 914.30 L 1055.30 920.20 L 1051.80 927.00 Z" fill="url(#linear-gradient)" fill-rule="nonzero" group-id="1,3" node-id="185" stroke="none" target-height="164.09998" target-width="549.7999" target-x="512.4" target-y="762.9"/><path d="M 230.80 927.00 L 671.70 927.00 L 669.60 914.30 L 668.20 908.30 L 663.70 893.80 L 660.50 885.90 L 655.30 875.60 L 652.10 870.50 L 648.60 865.70 L 644.60 861.10 L 640.30 856.80 L 633.10 851.20 L 629.00 848.70 L 624.70 846.60 L 620.30 844.80 L 615.50 843.40 L 610.30 842.30 L 604.70 841.70 L 599.30 841.50 L 593.30 841.80 L 586.90 842.60 L 579.90 844.00 L 582.20 831.70 L 583.50 819.00 L 583.80 811.90 L 583.40 799.40 L 581.80 789.60 L 580.50 785.00 L 578.90 780.60 L 576.80 776.60 L 575.00 773.80 L 570.50 769.10 L 567.70 767.10 L 564.90 765.50 L 561.60 764.30 L 557.90 763.40 L 553.60 762.90 L 549.50 762.90 L 544.80 763.30 L 539.50 764.30 L 533.50 765.90 L 527.80 767.80 L 514.30 773.70 L 506.30 777.80 L 508.40 765.80 L 509.70 753.50 L 509.90 739.50 L 509.00 730.10 L 507.00 721.30 L 505.40 717.40 L 503.50 713.80 L 501.80 711.30 L 497.60 707.30 L 495.10 705.80 L 492.50 704.60 L 489.40 703.80 L 486.00 703.40 L 482.00 703.40 L 478.20 703.90 L 473.90 704.80 L 469.00 706.40 L 463.30 708.60 L 452.20 714.20 L 438.10 723.10 L 439.50 704.00 L 439.40 689.60 L 438.90 682.20 L 437.90 674.90 L 436.50 668.20 L 435.10 663.90 L 433.50 660.20 L 431.60 657.00 L 429.90 654.80 L 428.00 653.00 L 425.90 651.70 L 423.60 650.70 L 421.30 650.20 L 418.60 650.10 L 415.50 650.50 L 411.90 651.50 L 408.60 652.90 L 400.60 657.80 L 395.70 661.60 L 389.60 666.90 L 382.50 674.00 L 374.30 683.10 L 366.40 692.60 L 357.30 704.20 L 347.00 718.20 L 325.80 749.40 L 313.20 769.10 L 310.40 766.20 L 305.50 763.20 L 302.30 762.10 L 300.00 761.70 L 294.70 762.00 L 292.00 762.80 L 289.00 764.30 L 285.70 766.50 L 282.60 769.10 L 279.30 772.70 L 275.60 777.50 L 272.20 782.50 L 268.60 788.90 L 264.70 797.00 L 261.20 805.20 L 257.40 815.10 L 253.40 827.10 L 249.80 839.10 L 242.00 869.70 L 238.40 886.30 L 230.80 927.00 Z" fill="url(#linear-gradient-2)" fill-rule="nonzero" group-id="1,3" node-id="187" stroke="none" target-height="276.90002" target-width="440.90002" target-x="230.8" target-y="650.1"/></g><g node-id="263"><path d="M 221.50 885.70 L 217.60 895.30 L 211.70 908.50 L 205.50 920.20 L 201.90 926.00 L 144.30 926.00 L 142.40 925.50 L 104.60 865.40 L 102.20 860.70 L 101.10 857.40 L 100.30 853.10 L 100.10 850.10 L 100.80 843.00 L 105.20 832.00 L 114.10 813.10 L 115.40 809.50 L 116.20 804.50 L 115.70 798.60 L 113.40 791.10 L 109.10 782.70 L 102.80 772.00 L 101.00 767.90 L 99.50 763.40 L 98.50 758.50 L 97.90 753.60 L 97.90 748.40 L 98.60 742.90 L 99.40 739.00 L 100.80 734.90 L 102.60 730.80 L 104.90 726.60 L 107.60 722.70 L 110.90 718.80 L 114.80 714.80 L 119.60 710.80 L 124.40 707.30 L 130.10 703.80 L 136.70 700.40 L 144.40 697.00 L 153.10 694.30 L 158.30 693.30 L 164.20 692.70 L 172.10 692.90 L 176.00 693.50 L 179.90 694.50 L 183.50 696.00 L 186.90 698.00 L 191.40 702.00 L 195.10 707.50 L 196.50 710.60 L 197.60 714.20 L 198.50 718.40 L 199.00 723.20 L 199.30 736.30 L 198.50 743.70 L 196.50 752.40 L 185.50 785.30 L 185.00 792.00 L 185.20 795.60 L 187.00 803.40 L 188.50 807.30 L 190.50 811.00 L 193.00 814.70 L 197.60 819.40 L 200.40 821.50 L 207.20 825.60 L 210.70 828.50 L 214.20 832.20 L 217.20 836.30 L 219.80 841.00 L 222.10 846.30 L 224.40 854.80 L 225.20 864.50 L 225.10 869.50 L 224.40 874.60 L 223.20 880.00 L 221.50 885.70 Z" fill="url(#linear-gradient-3)" fill-rule="nonzero" group-id="1,4" node-id="191" stroke="none" target-height="233.29999" target-width="127.299995" target-x="97.9" target-y="692.7"/><path d="M 163.60 926.30 L 160.00 916.70 L 156.80 906.60 L 154.00 895.90 L 151.70 885.20 L 149.70 874.20 L 148.10 863.00 L 146.00 840.50 L 144.80 812.80 L 145.00 781.90 L 146.30 755.60 L 149.40 723.70 L 152.40 724.10 L 149.30 755.80 L 148.00 782.00 L 147.70 797.10 L 147.70 812.60 L 148.30 829.00 L 149.90 851.20 L 152.60 873.50 L 156.90 895.10 L 159.60 905.60 L 162.80 915.60 L 166.40 925.10 Z" fill="#ffffff" fill-rule="nonzero" group-id="1,4" node-id="193" stroke="none" target-height="202.59998" target-width="21.59999" target-x="144.8" target-y="723.7"/><path d="M 150.80 926.40 L 75.70 926.40 L 71.50 924.90 L 65.30 921.60 L 62.80 919.60 L 59.30 915.50 L 57.60 912.20 L 56.50 909.00 L 55.80 905.60 L 55.10 896.70 L 54.50 893.40 L 53.50 890.60 L 52.20 888.40 L 50.40 886.40 L 48.40 884.80 L 46.20 883.40 L 42.50 881.90 L 34.60 880.00 L 24.50 878.70 L 20.00 877.50 L 16.20 876.20 L 12.90 874.60 L 10.20 872.80 L 7.60 870.70 L 3.80 866.00 L 2.40 863.60 L 1.10 860.00 L 0.30 856.40 L 0.00 852.80 L 0.20 849.20 L 0.80 845.70 L 3.10 839.20 L 6.50 834.20 L 10.50 830.10 L 14.30 826.70 L 18.10 823.90 L 25.60 819.70 L 29.40 818.30 L 36.60 816.70 L 41.50 816.40 L 46.10 816.70 L 50.50 817.50 L 54.80 818.90 L 58.80 820.50 L 66.00 824.90 L 71.70 830.10 L 75.90 835.70 L 80.20 843.90 L 82.20 846.80 L 86.20 851.10 L 90.10 853.90 L 93.10 855.30 L 95.50 856.00 L 99.40 856.40 L 100.90 856.40 L 104.90 855.20 L 108.60 854.50 L 111.90 854.30 L 114.90 854.50 L 118.00 855.10 L 123.60 857.40 L 126.10 859.00 L 129.20 861.70 L 132.00 864.70 L 134.70 868.30 L 139.10 876.20 L 143.50 887.40 L 145.50 894.30 L 148.40 907.60 L 150.00 918.90 L 150.80 926.40 Z" fill="url(#linear-gradient-4)" fill-rule="nonzero" group-id="1,4" node-id="195" stroke="none" target-height="110" target-width="150.8" target-x="0" target-y="816.4"/><path d="M 324.50 838.40 L 311.40 847.50 L 307.90 850.40 L 302.90 856.00 L 300.30 861.20 L 299.50 864.00 L 299.20 867.00 L 299.60 876.30 L 299.30 880.90 L 298.40 885.80 L 296.80 891.70 L 295.30 895.60 L 290.70 903.90 L 287.80 908.00 L 284.10 912.00 L 279.70 916.10 L 272.10 921.40 L 262.20 926.40 L 179.90 926.40 L 182.90 920.30 L 185.40 908.40 L 186.90 902.80 L 191.30 889.30 L 194.30 882.00 L 197.70 874.70 L 201.80 867.60 L 204.70 863.30 L 211.10 855.40 L 214.70 851.90 L 218.60 848.80 L 222.80 846.10 L 227.20 843.90 L 231.90 842.20 L 244.90 839.70 L 247.60 838.50 L 250.90 835.70 L 253.90 830.90 L 255.20 827.50 L 256.50 823.10 L 257.10 817.30 L 258.00 813.10 L 259.30 808.60 L 261.30 803.70 L 265.00 797.40 L 267.50 794.30 L 270.30 791.50 L 273.70 789.10 L 277.60 786.90 L 280.70 785.70 L 288.20 784.10 L 296.90 783.90 L 301.80 784.40 L 307.20 785.40 L 316.30 788.00 L 323.80 791.30 L 327.80 793.70 L 331.60 796.40 L 335.10 799.50 L 337.10 801.90 L 340.10 807.00 L 341.00 809.80 L 341.40 812.80 L 341.20 816.00 L 340.50 819.10 L 339.00 822.60 L 336.60 826.50 L 333.70 830.00 L 329.80 833.90 L 324.50 838.40 Z" fill="url(#linear-gradient-5)" fill-rule="nonzero" group-id="1,4" node-id="197" stroke="none" target-height="142.5" target-width="161.5" target-x="179.9" target-y="783.9"/><path d="M 130.40 927.20 L 125.80 920.60 L 120.80 914.20 L 115.50 907.90 L 109.80 902.00 L 98.10 890.90 L 89.00 883.20 L 80.10 876.30 L 71.20 869.90 L 55.30 859.40 L 35.00 848.00 L 36.30 845.30 L 50.30 852.90 L 64.80 861.90 L 82.00 873.90 L 91.00 880.90 L 106.20 894.20 L 117.80 906.00 L 123.20 912.30 L 128.30 918.80 L 133.00 925.60 Z" fill="#ffffff" fill-rule="nonzero" group-id="1,4" node-id="199" stroke="none" target-height="81.900024" target-width="98" target-x="35" target-y="845.3"/><path d="M 221.70 926.70 L 219.00 925.40 L 228.00 908.30 L 237.40 892.00 L 249.30 872.90 L 256.00 863.10 L 263.20 853.10 L 270.70 843.50 L 278.50 834.40 L 283.90 828.70 L 294.70 818.70 L 300.40 814.30 L 305.90 810.70 L 311.40 807.80 L 312.60 810.50 L 307.30 813.40 L 301.90 817.00 L 296.30 821.30 L 290.90 826.10 L 280.20 837.20 L 272.40 846.30 L 264.90 856.00 L 257.70 866.00 L 244.70 885.80 L 230.00 911.00 L 221.70 926.70 Z" fill="#ffffff" fill-rule="nonzero" group-id="1,4" node-id="201" stroke="none" target-height="118.900024" target-width="93.600006" target-x="219" target-y="807.8"/></g><g node-id="264"><path d="M 1098.90 862.50 L 1096.50 880.40 L 1094.50 891.20 L 1091.60 903.40 L 1087.70 915.70 L 1085.30 921.40 L 1082.60 926.30 L 1027.10 926.30 L 977.40 864.00 L 971.80 854.70 L 967.60 844.80 L 965.50 837.10 L 964.50 828.80 L 964.70 824.50 L 965.60 818.50 L 965.70 812.60 L 964.40 806.10 L 963.30 802.70 L 961.50 798.80 L 959.00 794.50 L 956.10 790.40 L 952.20 786.00 L 944.30 778.30 L 941.50 775.10 L 936.20 767.30 L 934.10 762.90 L 932.30 758.10 L 931.00 753.20 L 930.20 748.00 L 930.00 742.40 L 930.80 733.90 L 931.90 729.40 L 933.50 724.70 L 935.40 720.30 L 937.80 715.60 L 940.90 710.80 L 944.60 705.80 L 948.60 701.20 L 953.30 696.40 L 958.90 691.40 L 965.30 686.20 L 973.70 681.00 L 979.00 678.40 L 984.90 676.20 L 993.30 674.20 L 997.60 673.70 L 1001.90 673.70 L 1006.10 674.30 L 1010.30 675.40 L 1013.20 676.60 L 1016.10 678.30 L 1018.80 680.40 L 1021.50 683.00 L 1023.80 685.90 L 1026.00 689.30 L 1028.10 693.50 L 1030.00 698.50 L 1032.80 707.30 L 1034.50 714.90 L 1035.40 722.80 L 1035.40 732.60 L 1033.10 766.70 L 1033.90 772.30 L 1035.20 776.70 L 1037.20 781.30 L 1040.80 787.30 L 1043.00 790.30 L 1048.40 795.40 L 1051.60 797.70 L 1054.90 799.60 L 1058.60 801.10 L 1066.30 803.20 L 1069.90 804.70 L 1073.60 806.70 L 1077.10 809.10 L 1080.60 812.00 L 1083.90 815.30 L 1087.00 819.00 L 1089.90 823.10 L 1092.50 827.70 L 1094.70 832.50 L 1096.50 837.80 L 1097.90 843.50 L 1098.80 849.40 L 1099.10 855.70 L 1098.90 862.50 Z" fill="url(#linear-gradient-6)" fill-rule="nonzero" group-id="1,5" node-id="205" stroke="none" target-height="252.59998" target-width="169.09998" target-x="930" target-y="673.7"/><path d="M 1051.60 928.50 L 1045.80 920.50 L 1040.20 911.80 L 1034.90 902.60 L 1029.90 893.10 L 1020.60 873.00 L 1014.40 857.50 L 1008.60 841.60 L 1003.50 825.60 L 998.90 810.00 L 991.10 780.10 L 985.30 753.70 L 981.30 732.40 L 978.20 712.70 L 981.20 712.30 L 984.30 731.90 L 988.30 753.10 L 994.00 779.40 L 1001.70 809.10 L 1006.30 824.60 L 1011.40 840.40 L 1017.10 856.20 L 1023.30 871.70 L 1032.50 891.60 L 1037.40 901.00 L 1042.80 910.20 L 1048.30 918.70 L 1054.00 926.70 Z" fill="#ffffff" fill-rule="nonzero" group-id="1,5" node-id="207" stroke="none" target-height="216.20001" target-width="75.79999" target-x="978.2" target-y="712.3"/><path d="M 1043.50 926.30 L 962.10 926.30 L 957.50 924.60 L 953.80 922.90 L 950.80 921.10 L 948.10 918.90 L 946.00 916.70 L 942.90 912.10 L 941.20 907.40 L 940.50 903.70 L 939.70 894.00 L 939.10 890.40 L 938.00 887.40 L 936.50 885.00 L 934.60 882.90 L 932.50 881.10 L 930.00 879.60 L 926.10 877.90 L 921.80 876.80 L 906.60 874.40 L 902.50 873.40 L 898.90 872.20 L 893.20 869.30 L 889.90 866.80 L 887.20 864.10 L 885.10 861.30 L 883.40 858.10 L 882.20 854.90 L 880.90 848.20 L 881.10 841.70 L 881.90 836.90 L 883.20 832.80 L 885.70 828.00 L 891.20 821.60 L 895.30 817.90 L 899.30 814.80 L 903.20 812.40 L 907.40 810.20 L 911.50 808.60 L 915.50 807.50 L 919.30 806.90 L 924.60 806.60 L 929.60 806.90 L 934.40 807.90 L 939.10 809.30 L 943.50 811.20 L 947.50 813.40 L 951.40 816.00 L 957.70 821.70 L 962.30 827.80 L 967.00 836.80 L 969.10 839.90 L 973.50 844.60 L 977.70 847.60 L 980.90 849.10 L 983.60 849.90 L 987.80 850.40 L 989.40 850.30 L 993.70 849.00 L 997.70 848.30 L 1001.30 848.00 L 1004.60 848.30 L 1008.00 849.00 L 1011.10 850.00 L 1014.00 851.40 L 1016.70 853.20 L 1020.10 856.10 L 1023.20 859.40 L 1026.10 863.30 L 1030.90 871.90 L 1035.60 884.00 L 1037.80 891.50 L 1041.00 905.90 L 1042.80 918.20 L 1043.50 926.30 Z" fill="url(#linear-gradient-7)" fill-rule="nonzero" group-id="1,5" node-id="209" stroke="none" target-height="119.70001" target-width="162.59998" target-x="880.9" target-y="806.6"/><path d="M 1232.10 830.80 L 1217.90 840.60 L 1214.10 843.80 L 1210.70 847.30 L 1208.70 849.90 L 1205.80 855.50 L 1204.90 858.50 L 1204.70 861.80 L 1205.10 871.90 L 1204.70 876.90 L 1203.20 884.20 L 1200.30 892.80 L 1198.20 897.30 L 1195.40 901.90 L 1192.20 906.30 L 1188.30 910.70 L 1183.40 915.10 L 1175.20 920.90 L 1164.50 926.30 L 1075.10 926.30 L 1078.40 919.70 L 1081.10 906.80 L 1082.70 900.70 L 1087.50 886.00 L 1090.80 878.10 L 1094.50 870.20 L 1098.90 862.50 L 1102.00 857.80 L 1109.00 849.30 L 1112.90 845.50 L 1117.20 842.10 L 1121.70 839.20 L 1129.00 835.80 L 1132.90 834.60 L 1142.80 833.00 L 1145.70 832.30 L 1148.60 830.90 L 1150.40 829.70 L 1152.20 827.90 L 1154.00 825.40 L 1155.50 822.70 L 1156.90 819.00 L 1158.20 814.20 L 1158.70 809.20 L 1160.30 801.60 L 1161.80 797.10 L 1163.70 792.50 L 1166.40 787.90 L 1168.50 784.90 L 1173.80 779.50 L 1176.90 777.20 L 1180.60 775.20 L 1184.80 773.60 L 1189.10 772.40 L 1194.10 771.70 L 1199.90 771.50 L 1204.20 771.80 L 1214.20 773.50 L 1223.10 776.00 L 1231.30 779.70 L 1235.60 782.30 L 1239.80 785.20 L 1243.50 788.60 L 1245.80 791.20 L 1247.60 793.90 L 1249.00 796.70 L 1250.00 799.80 L 1250.40 803.00 L 1250.20 806.50 L 1248.70 811.80 L 1245.20 817.90 L 1240.10 823.80 L 1232.10 830.80 Z" fill="url(#linear-gradient-8)" fill-rule="nonzero" group-id="1,5" node-id="211" stroke="none" target-height="154.79999" target-width="175.30005" target-x="1075.1" target-y="771.5"/><path d="M 1021.60 927.10 L 1016.50 919.90 L 1011.10 912.90 L 1005.30 906.20 L 999.20 899.70 L 986.50 887.60 L 976.60 879.30 L 966.90 871.80 L 957.30 864.80 L 940.00 853.50 L 932.90 849.30 L 918.00 841.10 L 919.30 838.50 L 934.40 846.70 L 950.10 856.40 L 968.80 869.40 L 978.60 877.00 L 988.60 885.50 L 995.10 891.40 L 1007.60 904.20 L 1013.50 911.10 L 1019.00 918.10 L 1024.10 925.50 Z" fill="#ffffff" fill-rule="nonzero" group-id="1,5" node-id="213" stroke="none" target-height="88.599976" target-width="106.099976" target-x="918" target-y="838.5"/><path d="M 1120.40 926.60 L 1117.70 925.30 L 1127.50 906.70 L 1137.60 889.00 L 1150.50 868.40 L 1157.80 857.70 L 1165.60 846.90 L 1173.70 836.40 L 1182.20 826.60 L 1188.10 820.30 L 1199.80 809.50 L 1206.00 804.80 L 1212.00 800.90 L 1217.90 797.80 L 1219.10 800.50 L 1213.40 803.60 L 1207.50 807.40 L 1201.40 812.20 L 1195.60 817.30 L 1183.90 829.40 L 1175.50 839.30 L 1167.30 849.80 L 1159.50 860.70 L 1145.40 882.20 L 1129.40 909.60 L 1120.40 926.60 Z" fill="#ffffff" fill-rule="nonzero" group-id="1,5" node-id="215" stroke="none" target-height="128.79999" target-width="101.400024" target-x="1117.7" target-y="797.8"/></g><g node-id="265"><path d="M 589.10 208.60 L 580.80 246.70 L 546.80 268.20 L 632.20 347.00 L 706.80 269.10 L 675.70 246.20 L 664.10 210.60 L 589.10 208.60 Z" fill="url(#linear-gradient-9)" fill-rule="nonzero" group-id="1,6" node-id="219" stroke="none" target-height="138.4" target-width="160" target-x="546.8" target-y="208.6"/><path d="M 688.60 129.80 L 688.60 77.60 L 567.60 77.60 L 567.60 128.80 L 562.20 127.70 L 560.00 127.60 L 556.10 128.20 L 553.60 129.80 L 552.60 130.90 L 551.90 132.50 L 551.50 134.50 L 551.80 139.40 L 552.70 143.10 L 555.30 150.70 L 557.80 156.60 L 562.60 165.20 L 564.80 168.20 L 567.60 171.30 L 569.30 177.20 L 572.90 186.40 L 575.70 192.00 L 579.00 197.60 L 583.20 203.40 L 586.40 207.10 L 593.90 214.00 L 598.10 217.10 L 602.90 219.80 L 608.10 222.10 L 616.60 224.60 L 626.40 226.00 L 629.80 226.00 L 639.60 224.60 L 648.10 222.20 L 653.30 219.80 L 658.10 217.10 L 662.30 214.10 L 669.80 207.10 L 673.00 203.40 L 677.20 197.60 L 680.50 192.10 L 685.30 181.70 L 688.60 171.30 L 691.40 168.30 L 693.60 165.30 L 698.40 156.60 L 700.90 150.80 L 703.50 143.10 L 704.40 139.50 L 704.80 136.70 L 704.30 132.60 L 703.60 131.10 L 701.40 129.20 L 698.50 128.40 L 696.20 128.20 L 693.90 128.40 L 688.60 129.80 Z" fill="url(#linear-gradient-10)" fill-rule="nonzero" group-id="1,6" node-id="221" stroke="none" target-height="148.4" target-width="153.29999" target-x="551.5" target-y="77.6"/><path d="M 428.00 349.80 L 371.50 502.30 L 270.90 554.70 L 268.90 551.10 L 266.50 547.80 L 263.70 544.60 L 259.00 540.40 L 254.00 536.70 L 248.90 533.50 L 239.90 528.80 L 233.70 526.30 L 198.70 499.00 L 195.20 503.00 L 194.20 504.90 L 193.20 507.90 L 192.80 510.50 L 193.00 513.10 L 194.10 517.20 L 195.50 519.70 L 188.20 523.20 L 178.10 529.00 L 173.80 532.00 L 168.40 537.00 L 165.00 541.70 L 163.80 545.50 L 163.90 548.40 L 164.40 550.30 L 165.90 552.50 L 160.50 550.20 L 139.10 538.90 L 137.60 538.70 L 136.00 538.90 L 134.60 539.60 L 133.50 540.60 L 132.90 541.80 L 132.60 543.10 L 132.80 545.20 L 133.50 547.40 L 136.40 552.60 L 134.60 553.60 L 133.40 554.70 L 132.70 555.90 L 132.30 558.50 L 133.30 561.90 L 134.30 563.80 L 137.50 567.90 L 136.90 569.80 L 136.90 573.50 L 138.60 577.70 L 140.30 580.10 L 142.60 582.50 L 146.50 585.80 L 156.00 592.00 L 165.90 597.10 L 177.40 601.90 L 186.00 605.20 L 192.30 607.00 L 198.80 608.40 L 205.50 609.50 L 219.10 610.60 L 229.30 610.70 L 239.30 610.30 L 249.00 609.50 L 266.20 607.20 L 287.30 602.90 L 393.30 585.40 L 401.70 583.40 L 408.90 581.20 L 415.20 578.70 L 421.40 575.90 L 426.60 573.00 L 431.10 570.00 L 438.90 563.70 L 445.70 556.20 L 448.30 552.30 L 450.40 548.70 L 452.50 543.90 L 529.80 396.00 Z M 191.60 552.00 L 188.50 549.90 L 187.60 548.60 L 186.50 546.40 L 185.90 542.10 L 186.20 538.90 L 187.20 537.30 L 190.20 534.40 L 196.50 530.40 L 201.50 527.90 L 221.20 552.00 L 213.00 552.90 L 201.30 553.40 L 194.20 552.80 L 191.60 552.00 Z" fill="url(#linear-gradient-11)" fill-rule="nonzero" group-id="1,6" node-id="223" stroke="none" target-height="260.90002" target-width="397.5" target-x="132.3" target-y="349.8"/><path d="M 205.50 532.90 L 201.60 529.40 L 198.60 526.10 L 196.20 522.70 L 193.10 517.10 L 191.80 513.10 L 194.70 512.50 L 193.30 512.80 L 194.70 512.50 L 195.90 515.90 L 198.70 521.20 L 201.00 524.30 L 203.70 527.40 L 207.30 530.60 Z" fill="#161c3e" fill-rule="nonzero" group-id="1,6" node-id="225" stroke="none" target-height="20.400024" target-width="15.5" target-x="191.8" target-y="512.5"/><path d="M 209.50 575.60 L 207.70 573.20 L 212.60 570.00 L 220.20 566.30 L 225.00 564.60 L 230.20 563.20 L 236.00 562.40 L 239.90 562.20 L 248.30 563.10 L 247.60 566.00 L 239.80 565.20 L 236.10 565.40 L 230.60 566.20 L 225.70 567.60 L 221.10 569.20 L 213.90 572.80 L 209.50 575.60 Z" fill="#161c3e" fill-rule="nonzero" group-id="1,6" node-id="227" stroke="none" target-height="13.399963" target-width="40.600006" target-x="207.7" target-y="562.2"/><path d="M 1123.70 553.50 L 1126.40 548.90 L 1127.10 546.80 L 1127.40 543.50 L 1126.40 541.20 L 1125.40 540.40 L 1123.80 539.80 L 1121.50 539.30 L 1106.60 547.60 L 1099.60 551.20 L 1094.20 553.50 L 1095.70 551.30 L 1096.30 549.40 L 1096.30 546.50 L 1095.10 542.70 L 1091.80 538.00 L 1086.30 533.00 L 1082.00 530.00 L 1071.90 524.20 L 1064.70 520.70 L 1066.00 518.20 L 1067.10 514.10 L 1067.30 511.50 L 1066.90 508.90 L 1065.90 505.90 L 1064.90 504.00 L 1061.40 500.00 L 1026.40 527.30 L 1020.20 529.80 L 1011.20 534.50 L 1006.10 537.70 L 1001.10 541.40 L 996.40 545.60 L 993.60 548.80 L 991.20 552.10 L 989.20 555.70 L 888.70 503.30 L 832.10 350.80 L 730.30 397.00 L 807.70 544.80 L 809.70 549.60 L 811.80 553.30 L 814.40 557.10 L 821.20 564.60 L 829.00 571.00 L 833.50 573.90 L 838.70 576.80 L 844.90 579.70 L 851.20 582.10 L 858.40 584.30 L 866.80 586.30 L 972.80 603.80 L 987.00 606.90 L 1002.30 609.30 L 1020.80 611.20 L 1030.80 611.60 L 1047.90 611.10 L 1061.30 609.30 L 1067.90 607.90 L 1074.10 606.10 L 1089.80 600.00 L 1099.20 595.60 L 1109.00 590.00 L 1113.60 586.70 L 1117.50 583.40 L 1119.80 581.00 L 1121.50 578.60 L 1123.20 574.40 L 1123.20 570.70 L 1122.60 568.80 L 1125.80 564.70 L 1127.60 560.80 L 1127.80 559.40 L 1127.40 556.80 L 1126.70 555.70 L 1125.50 554.60 L 1123.70 553.50 Z M 1068.50 553.00 L 1066.00 553.80 L 1058.80 554.40 L 1047.20 553.90 L 1039.00 553.00 L 1058.70 528.90 L 1063.60 531.40 L 1069.90 535.40 L 1073.00 538.30 L 1074.00 539.90 L 1074.30 543.10 L 1073.60 547.40 L 1072.60 549.60 L 1071.60 550.90 L 1068.50 553.00 Z" fill="url(#linear-gradient-12)" fill-rule="nonzero" group-id="1,6" node-id="229" stroke="none" target-height="260.8" target-width="397.50006" target-x="730.3" target-y="350.8"/><g node-id="266"><path d="M 529.80 396.00 L 474.90 501.00 L 471.90 493.60 L 468.60 486.90 L 464.90 480.70 L 460.70 474.80 L 456.30 469.40 L 451.70 464.40 L 446.80 459.80 L 436.90 451.90 L 429.20 446.80 L 421.90 442.70 L 408.20 436.30 L 397.40 432.50 L 428.00 349.80 Z" fill="#000000" fill-opacity="0.2" fill-rule="nonzero" group-id="1,6,7" node-id="233" stroke="none" target-height="151.20001" target-width="132.4" target-x="397.4" target-y="349.8"/></g><path d="M 1054.70 533.90 L 1052.80 531.60 L 1056.40 528.40 L 1061.40 522.20 L 1064.20 516.90 L 1065.40 513.50 L 1068.30 514.10 L 1067.00 518.10 L 1065.70 520.80 L 1061.50 527.10 L 1058.60 530.40 L 1054.70 533.90 Z" fill="#161c3e" fill-rule="nonzero" group-id="1,6" node-id="236" stroke="none" target-height="20.400024" target-width="15.5" target-x="1052.8" target-y="513.5"/><g node-id="267"><path d="M 862.40 432.40 L 857.40 433.20 L 851.00 434.70 L 841.70 437.80 L 830.80 442.80 L 818.60 450.10 L 812.50 454.40 L 806.00 459.60 L 799.00 465.70 L 792.40 472.20 L 785.50 479.70 L 778.20 488.40 L 730.30 397.00 L 832.10 350.80 Z" fill="#000000" fill-opacity="0.2" fill-rule="nonzero" group-id="1,6,8" node-id="240" stroke="none" target-height="137.6" target-width="132.10004" target-x="730.3" target-y="350.8"/></g><path d="M 1050.60 576.60 L 1042.80 572.00 L 1034.40 568.60 L 1029.50 567.20 L 1024.10 566.40 L 1016.50 566.40 L 1012.50 567.00 L 1011.90 564.10 L 1020.20 563.20 L 1024.20 563.40 L 1029.90 564.20 L 1035.10 565.60 L 1040.00 567.30 L 1047.50 571.00 L 1052.50 574.20 Z" fill="#161c3e" fill-rule="nonzero" group-id="1,6" node-id="243" stroke="none" target-height="13.399963" target-width="40.599976" target-x="1011.9" target-y="563.2"/><path d="M 764.80 461.00 L 790.80 669.00 L 627.80 718.20 L 468.80 669.00 L 487.80 478.00 L 484.80 471.70 L 481.60 466.10 L 478.20 461.10 L 474.70 456.50 L 470.80 452.20 L 462.90 444.90 L 458.80 441.90 L 453.10 438.20 L 447.40 435.20 L 441.90 432.80 L 436.10 430.70 L 425.70 427.90 L 418.10 426.60 L 411.90 426.00 L 406.20 425.70 L 398.80 426.00 L 421.80 343.00 L 425.20 334.70 L 431.90 320.60 L 435.30 314.70 L 440.30 306.90 L 445.10 300.30 L 449.80 294.70 L 454.80 289.50 L 459.40 285.20 L 468.20 278.60 L 475.50 274.30 L 480.50 272.00 L 486.80 270.00 L 584.40 233.00 L 592.80 241.40 L 602.30 248.80 L 609.90 253.40 L 614.20 255.50 L 618.60 257.20 L 623.20 258.50 L 627.90 259.40 L 635.10 259.60 L 642.60 258.30 L 646.30 257.10 L 649.90 255.40 L 653.70 253.10 L 657.70 250.20 L 661.10 247.10 L 664.70 243.20 L 668.40 238.60 L 672.20 233.00 L 766.80 268.00 L 773.70 271.70 L 779.00 275.00 L 784.60 279.00 L 795.90 288.50 L 805.60 298.70 L 810.30 304.30 L 815.00 310.80 L 819.70 318.00 L 824.00 325.50 L 828.00 333.80 L 831.80 343.00 L 859.80 423.00 L 852.50 421.50 L 846.80 420.70 L 840.50 420.30 L 832.80 420.30 L 822.00 421.40 L 816.10 422.50 L 810.20 424.10 L 804.20 426.20 L 798.10 429.00 L 793.70 431.40 L 784.90 437.50 L 780.50 441.30 L 776.40 445.30 L 772.50 449.90 L 768.60 455.10 L 764.80 461.00 Z" fill="url(#linear-gradient-13)" fill-rule="nonzero" group-id="1,6" node-id="245" stroke="none" target-height="485.2" target-width="461" target-x="398.8" target-y="233"/><path d="M 621.40 658.40 L 450.50 621.70 L 436.50 617.90 L 421.80 614.20 L 404.40 610.60 L 395.30 608.90 L 377.30 606.70 L 363.80 606.20 L 359.10 606.60 L 351.90 607.90 L 349.40 608.80 L 345.70 611.20 L 618.30 810.40 L 895.10 606.00 L 883.60 605.30 L 866.50 605.90 L 847.10 608.20 L 836.50 610.00 L 824.30 612.60 L 810.10 616.00 L 796.20 619.90 L 780.50 624.90 L 763.00 631.10 Z" fill="url(#linear-gradient-14)" fill-rule="nonzero" group-id="1,6" node-id="247" stroke="none" target-height="205.10004" target-width="549.39996" target-x="345.7" target-y="605.3"/><path d="M 801.80 867.50 L 787.20 864.20 L 778.60 862.80 L 769.10 861.80 L 756.10 861.50 L 749.40 861.90 L 742.70 862.80 L 736.20 864.10 L 722.40 867.80 L 710.10 869.90 L 702.10 870.90 L 693.60 871.40 L 677.60 871.20 L 663.90 869.60 L 657.00 868.30 L 650.00 866.50 L 642.90 864.20 L 636.70 861.70 L 630.70 858.80 L 622.50 854.20 L 618.30 852.40 L 606.10 848.00 L 586.50 842.20 L 557.80 834.50 L 540.20 829.30 L 520.50 823.00 L 495.20 814.50 L 466.00 803.90 L 428.10 788.90 L 408.60 780.50 L 376.00 765.10 L 351.00 751.80 L 338.80 744.80 L 327.20 737.60 L 308.30 724.50 L 293.90 712.90 L 287.50 707.10 L 281.20 700.90 L 275.70 694.70 L 270.90 688.60 L 266.70 682.50 L 263.70 677.30 L 261.10 672.10 L 259.10 667.00 L 257.50 661.90 L 256.40 656.70 L 255.80 651.50 L 255.80 646.30 L 256.30 641.00 L 257.30 635.60 L 259.00 630.10 L 262.80 624.80 L 266.20 621.10 L 270.20 617.30 L 275.70 613.00 L 279.70 610.30 L 289.70 605.30 L 295.20 603.30 L 301.40 601.60 L 308.50 600.20 L 319.50 599.30 L 325.70 599.30 L 339.00 600.60 L 346.10 601.90 L 353.70 603.70 L 362.00 606.10 L 369.90 608.80 L 378.40 612.30 L 387.60 616.40 L 397.50 621.40 L 406.90 626.50 L 417.00 632.60 L 427.70 639.60 L 439.30 647.70 L 578.80 747.20 L 584.20 752.00 L 589.80 756.50 L 600.90 764.00 L 606.90 767.40 L 613.20 770.60 L 620.10 773.50 L 629.80 776.70 L 640.20 778.90 L 653.10 780.00 L 658.60 781.50 L 662.10 783.00 L 666.50 785.30 L 671.10 788.30 L 676.20 792.40 L 683.10 799.30 L 686.80 803.80 L 756.90 818.00 L 763.60 820.00 L 776.40 824.90 L 789.10 831.10 L 799.30 837.80 L 806.30 844.10 L 809.20 847.60 L 811.60 851.20 L 813.40 855.10 L 813.90 856.90 L 813.80 860.30 L 813.20 862.00 L 811.40 864.80 L 808.70 866.80 L 807.10 867.40 L 803.70 867.80 L 801.80 867.50 Z" fill="url(#linear-gradient-15)" fill-rule="nonzero" group-id="1,6" node-id="249" stroke="none" target-height="272.10004" target-width="558.10004" target-x="255.8" target-y="599.3"/><g node-id="268"><path d="M 770.70 822.60 L 642.90 864.20 L 636.70 861.70 L 630.70 858.80 L 622.50 854.20 L 618.40 852.40 L 606.10 848.00 L 586.50 842.20 L 557.80 834.50 L 540.30 829.30 L 520.50 823.00 L 481.20 809.50 L 466.00 803.90 L 595.80 760.70 L 606.90 767.40 L 613.20 770.60 L 624.90 775.20 L 635.00 777.90 L 640.20 778.90 L 653.10 779.90 L 658.50 781.50 L 662.10 783.00 L 666.50 785.30 L 671.00 788.20 L 676.20 792.40 L 683.10 799.30 L 686.80 803.80 L 756.90 818.00 L 770.70 822.60 Z" fill="#000000" fill-opacity="0.2" fill-rule="nonzero" group-id="1,6,9" node-id="253" stroke="none" target-height="103.5" target-width="304.7" target-x="466" target-y="760.7"/></g><path d="M 983.70 630.10 L 979.90 624.80 L 976.50 621.10 L 972.50 617.30 L 967.00 613.00 L 963.00 610.30 L 953.00 605.30 L 947.50 603.30 L 941.30 601.60 L 934.20 600.20 L 923.30 599.30 L 917.00 599.30 L 903.70 600.60 L 896.70 601.90 L 889.00 603.70 L 880.70 606.10 L 872.80 608.80 L 864.30 612.30 L 855.10 616.40 L 845.20 621.40 L 835.80 626.50 L 825.80 632.60 L 815.00 639.60 L 664.00 747.20 L 658.50 752.10 L 649.10 759.30 L 642.80 763.40 L 635.90 767.40 L 628.10 771.30 L 622.70 773.50 L 610.90 777.30 L 604.70 778.60 L 598.30 779.40 L 589.70 780.00 L 584.20 781.50 L 580.70 783.00 L 576.30 785.30 L 571.70 788.30 L 566.60 792.40 L 559.70 799.30 L 556.00 803.80 L 485.80 818.00 L 473.20 822.10 L 461.10 827.30 L 454.60 830.60 L 448.10 834.50 L 444.00 837.40 L 436.80 843.80 L 433.70 847.30 L 431.20 851.10 L 429.40 855.00 L 428.90 856.90 L 429.00 860.30 L 430.30 863.40 L 432.60 865.80 L 435.70 867.40 L 437.30 867.80 L 441.00 867.50 L 455.60 864.10 L 464.10 862.80 L 473.60 861.80 L 486.60 861.50 L 493.40 861.90 L 500.00 862.70 L 506.60 864.10 L 516.40 866.80 L 525.70 868.80 L 539.70 870.70 L 547.90 871.30 L 563.50 871.30 L 576.90 869.90 L 583.70 868.70 L 590.50 867.10 L 597.50 864.90 L 604.30 862.40 L 611.10 859.20 L 617.90 855.50 L 633.60 849.60 L 663.40 840.30 L 685.00 834.50 L 706.40 828.10 L 744.20 815.60 L 776.70 803.90 L 812.30 789.90 L 830.80 781.90 L 849.30 773.60 L 867.50 764.70 L 891.20 752.20 L 913.60 738.80 L 924.10 731.90 L 933.90 724.90 L 943.40 717.60 L 952.00 710.20 L 959.60 702.80 L 965.10 696.90 L 970.00 691.10 L 974.20 685.30 L 977.80 679.50 L 982.60 669.70 L 984.40 664.90 L 985.60 660.00 L 986.50 655.20 L 987.00 650.30 L 986.90 645.30 L 986.40 640.30 L 985.30 635.30 L 983.70 630.10 Z" fill="url(#linear-gradient-16)" fill-rule="nonzero" group-id="1,6" node-id="256" stroke="none" target-height="272" target-width="558.1" target-x="428.9" target-y="599.3"/><path d="M 701.80 77.50 L 706.10 72.60 L 709.00 68.40 L 710.90 64.80 L 712.00 62.00 L 712.60 59.50 L 712.50 55.30 L 711.90 53.40 L 709.70 50.20 L 705.70 47.40 L 702.90 46.20 L 696.10 44.70 L 688.40 44.50 L 680.50 45.50 L 676.50 46.40 L 680.60 43.30 L 681.90 41.80 L 682.70 40.10 L 682.80 37.80 L 681.20 35.50 L 676.80 33.00 L 674.80 32.50 L 672.50 32.50 L 667.90 33.30 L 664.20 34.70 L 662.30 35.80 L 662.90 33.30 L 662.90 31.70 L 662.00 28.90 L 659.90 26.90 L 656.50 25.60 L 650.90 25.30 L 647.30 25.70 L 642.50 26.50 L 635.10 28.30 L 625.00 31.60 L 614.00 35.90 L 599.80 42.00 L 593.60 43.10 L 581.30 46.10 L 575.20 48.90 L 572.40 51.00 L 569.70 53.60 L 567.90 55.80 L 566.70 58.30 L 565.70 61.40 L 565.30 64.60 L 565.40 67.80 L 566.10 71.00 L 564.00 71.50 L 562.60 72.20 L 561.00 73.50 L 559.60 75.30 L 557.60 80.30 L 556.80 86.60 L 557.20 94.50 L 558.00 99.80 L 567.30 138.00 L 571.80 128.80 L 576.00 119.30 L 580.00 108.00 L 582.90 96.20 L 583.40 92.30 L 583.50 85.20 L 591.20 86.50 L 602.80 89.20 L 614.60 90.70 L 620.60 90.90 L 626.50 90.90 L 644.10 91.70 L 653.00 91.70 L 661.50 91.30 L 669.90 90.40 L 677.60 89.10 L 678.70 100.70 L 679.60 107.10 L 680.80 113.70 L 682.50 120.20 L 684.60 126.20 L 686.30 130.10 L 688.20 133.40 L 690.30 136.30 L 696.10 120.40 L 699.50 108.30 L 700.80 101.90 L 701.80 95.40 L 702.10 89.40 L 702.00 85.40 L 700.70 78.60 L 701.80 77.50 Z" fill="url(#linear-gradient-17)" fill-rule="nonzero" group-id="1,6" node-id="258" stroke="none" target-height="112.7" target-width="155.79999" target-x="556.8" target-y="25.3"/></g></g></svg>