<?xml version="1.0" standalone="no"?><!DOCTYPE svg PUBLIC "-//W3C//DTD SVG 1.1//EN" "http://www.w3.org/Graphics/SVG/1.1/DTD/svg11.dtd"><svg t="1728376591162" class="icon" viewBox="0 0 1024 1024" version="1.1" xmlns="http://www.w3.org/2000/svg" p-id="1258" xmlns:xlink="http://www.w3.org/1999/xlink" width="200" height="200"><path d="M144.676571 607.963429a367.323429 332.068571 0 1 0 734.646858 0 367.323429 332.068571 0 1 0-734.646858 0Z" fill="#E3661C" p-id="1259"></path><path d="M512 290.523429c194.779429 0 352.694857 142.116571 352.694857 317.44S706.779429 925.330286 512 925.330286s-352.694857-142.116571-352.694857-317.366857S317.220571 290.523429 512 290.523429m0-29.257143c-210.578286 0-381.952 155.501714-381.952 346.697143S301.421714 954.587429 512 954.587429s381.952-155.501714 381.952-346.624S722.578286 261.266286 512 261.266286z" fill="#333333" p-id="1260"></path><path d="M512 290.523429a384.877714 384.877714 0 0 0-146.285714 28.672 297.106286 297.106286 0 0 0-77.897143 198.948571c0 175.542857 157.842286 317.44 352.621714 317.44a384.585143 384.585143 0 0 0 146.285714-28.672 297.325714 297.325714 0 0 0 77.970286-198.948571c0-175.323429-157.915429-317.44-352.694857-317.44z" fill="#F7873C" p-id="1261"></path><path d="M498.541714 510.317714a14.628571 14.628571 0 0 1-13.165714-9.874285L446.171429 386.998857l-105.545143 55.661714a14.628571 14.628571 0 0 1-6.802286 1.682286 14.628571 14.628571 0 0 1-13.385143-20.626286l37.083429-81.92c-24.649143-4.827429-71.68-13.604571-108.690286-20.48l-59.977143-11.264-18.944-3.657142c-8.630857-1.682286-17.481143-3.437714-18.724571-14.189715a15.067429 15.067429 0 0 1 3.584-11.410285 14.628571 14.628571 0 0 1 10.898285-4.900572c1.316571 0 133.046857-0.877714 209.481143-12.653714 77.531429-11.922286 114.176-41.252571 114.907429-41.545143a14.628571 14.628571 0 0 1 9.289143-3.291429 14.628571 14.628571 0 0 1 7.314285 2.194286s40.886857 24.429714 129.097143 36.205714a435.712 435.712 0 0 0 56.393143 3.437715 714.313143 714.313143 0 0 0 143.506286-16.018286 13.531429 13.531429 0 0 1 3.364571 0 14.628571 14.628571 0 0 1 7.314286 27.428571L699.026286 351.085714l11.410285 88.429715a14.628571 14.628571 0 0 1-14.628571 16.457142 14.628571 14.628571 0 0 1-9.289143-3.291428L574.464 360.667429l-61.878857 140.946285a14.628571 14.628571 0 0 1-13.385143 8.704z" fill="#78A74C" p-id="1262"></path><path d="M498.980571 233.033143s41.618286 25.819429 134.875429 38.253714a444.342857 444.342857 0 0 0 58.514286 3.584 725.430857 725.430857 0 0 0 146.944-16.384L683.227429 342.966857l12.726857 98.304-127.122286-104.155428-69.632 158.573714-44.690286-129.609143-120.758857 63.634286 44.470857-98.377143c0-1.389714-213.869714-40.228571-212.114285-40.813714 0 0 133.193143-0.731429 211.602285-12.8 83.382857-12.873143 121.636571-44.690286 121.636572-44.690286m0-29.257143a29.257143 29.257143 0 0 0-18.578286 6.656c-1.097143 0.877714-35.474286 27.355429-107.52 38.4-75.337143 11.629714-205.970286 12.507429-207.286857 12.507429a27.794286 27.794286 0 0 0-11.410286 2.413714 29.257143 29.257143 0 0 0-17.554286 30.061714c2.413714 21.430857 21.942857 25.380571 30.427429 26.989714 4.534857 0.950857 11.044571 2.194286 19.017143 3.657143l59.977143 11.264c29.257143 5.412571 64.804571 12.068571 90.477714 16.969143L307.2 417.645714a29.257143 29.257143 0 0 0 40.301714 37.961143l90.550857-47.762286 33.572572 97.426286a29.257143 29.257143 0 0 0 26.404571 19.675429h1.243429a29.257143 29.257143 0 0 0 26.770286-17.481143l54.125714-123.245714 97.28 79.725714a29.257143 29.257143 0 0 0 47.542857-26.404572l-10.166857-78.482285 138.166857-74.898286a29.257143 29.257143 0 0 0-13.970286-54.930286 30.573714 30.573714 0 0 0-6.729143 0.731429 700.196571 700.196571 0 0 1-140.214857 15.652571 416.914286 416.914286 0 0 1-54.345143-3.291428c-84.333714-11.264-123.172571-34.084571-123.538285-34.304a28.598857 28.598857 0 0 0-15.213715-4.315429z" fill="#333333" p-id="1263"></path><path d="M504.685714 319.780571a29.257143 29.257143 0 0 1-28.672-23.552c-0.877714-4.388571-21.430857-109.714286 17.334857-173.421714 21.942857-35.547429 48.274286-46.811429 66.852572-50.029714 19.821714-3.364571 51.2-1.170286 87.771428 28.598857a29.257143 29.257143 0 1 1-37.010285 45.348571c-15.213714-12.361143-29.622857-18.139429-40.667429-16.237714-9.581714 1.609143-18.651429 9.289143-26.843428 22.747429-19.894857 32.694857-16.603429 98.011429-9.947429 131.657143a29.257143 29.257143 0 0 1-22.893714 34.450285 26.258286 26.258286 0 0 1-5.924572 0.438857z" fill="#333333" p-id="1264"></path><path d="M362.642286 607.597714a36.571429 36.571429 0 0 1 8.630857 51.2 36.571429 36.571429 0 0 1-65.828572-15.067428 36.571429 36.571429 0 0 1 57.270858-35.913143M385.755429 699.757714a21.942857 21.942857 0 1 1-16.384-3.730285 21.942857 21.942857 0 0 1 16.384 3.730285" fill="#F8FFE6" p-id="1265"></path></svg>